<?xml version="1.0" standalone="no"?>
<!DOCTYPE svg PUBLIC "-//W3C//DTD SVG 1.1//EN" "http://www.w3.org/Graphics/SVG/1.1/DTD/svg11.dtd" >
<!--
2013-9-30: Created.
-->
<svg>
<metadata>
Created by iconfont
</metadata>
<defs>

<font id="iconfont" horiz-adv-x="1024" >
  <font-face
    font-family="iconfont"
    font-weight="500"
    font-stretch="normal"
    units-per-em="1024"
    ascent="896"
    descent="-128"
  />
    <missing-glyph />
    
    <glyph glyph-name="xiazai" unicode="&#58928;" d="M512 26.933333c-8.738133 0-17.476267 3.345067-24.1664 9.966933l-341.333333 341.333333C136.738133 388.064 133.802667 402.673067 139.127467 415.438933 144.384 428.2048 156.8768 436.533333 170.666667 436.533333L341.333333 436.533333 341.333333 743.733333c0 18.8416 15.291733 34.133333 34.133333 34.133333l273.066667 0C667.374933 777.866667 682.666667 762.574933 682.666667 743.733333l0-307.2 170.666667 0c13.789867 0 26.282667-8.328533 31.5392-21.0944s2.321067-27.4432-7.3728-37.205333l-341.333333-341.333333C529.476267 30.2784 520.738133 26.933333 512 26.933333zM253.064533 368.266667 512 109.3312 770.935467 368.266667 648.533333 368.266667C629.691733 368.266667 614.4 383.5584 614.4 402.4L614.4 709.6 409.6 709.6 409.6 402.4c0-18.8416-15.291733-34.133333-34.133333-34.133333L253.064533 368.266667zM989.866667-177.866667l-955.733333 0C15.291733-177.866667 0-162.574933 0-143.733333s15.291733 34.133333 34.133333 34.133333l955.733333 0c18.8416 0 34.133333-15.291733 34.133333-34.133333S1008.708267-177.866667 989.866667-177.866667z"  horiz-adv-x="1024" />

    
    <glyph glyph-name="daochu01" unicode="&#58885;" d="M831.999095-65.537463l-639.994116 0c-105.879408 0-192.004989 87.454919-192.004989 194.967602L-0.00001 519.374554c0 35.923864 28.629387 64.991248 64.00678 64.991248 35.370229 0 63.993476-29.067384 63.993476-64.991248l0-389.945438c0-35.795945 28.688742-64.985107 64.004733-64.985107l639.994116 0c35.313944 0 64.00064 29.189163 64.00064 64.985107L895.999734 519.374554c0 35.923864 28.627341 64.991248 63.993476 64.991248 35.382509 0 64.00678-29.067384 64.00678-64.991248l0-389.945438C1024.001014 21.917456000000016 937.872363-65.537463 831.999095-65.537463zM534.623306 821.349302c-12.43172 12.633321-32.812864 12.633321-45.245607 0l-210.747741-214.011221c-12.432743-12.626158-8.249267-22.972279 9.375981-22.972279l63.995523 0c17.628318 0 32.007483-14.60021 32.007483-32.492554l0-129.985565c0-17.897461 14.368932-32.4946 31.99725-32.4946l191.990662 0c17.630365 0 32.007483 14.59714 32.007483 32.4946L640.00434 551.873248c0 17.892344 14.369955 32.492554 32.00032 32.492554l63.990406 0c17.629342 0 21.822028 10.346122 9.374958 22.972279L534.623306 821.349302zM640.00434 291.906211c0-17.895414-14.31367-32.492554-32.007483-32.492554-17.685626 0-31.996226 14.59714-31.996226 32.492554 0 18.026403 14.309577 32.496647 31.996226 32.496647C625.690669 324.40285800000004 640.00434 309.93261399999994 640.00434 291.906211zM448.000374 291.906211c0-17.895414-14.308554-32.492554-31.995203-32.492554-17.687673 0-31.99725 14.59714-31.99725 32.492554 0 18.026403 14.308554 32.496647 31.99725 32.496647C433.69182 324.40285800000004 448.000374 309.93261399999994 448.000374 291.906211zM416.005171 324.40285800000004l191.990662 0 0-64.989201-191.990662 0 0 64.989201Z"  horiz-adv-x="1025" />

    
    <glyph glyph-name="daoru" unicode="&#58887;" d="M832.004212-64.51410799999996l-640.000256 0c-105.878385 0-192.003966 86.157305-192.003966 192.074577L-0.00001 511.718833c0 35.390696 28.623247 64.026223 63.993476 64.026223 35.380462 0 64.00678-28.635528 64.00678-64.026223l0-384.158364c0-35.264823 28.688742-64.02213 64.00371-64.02213l640.000256 0c35.314968 0 64.001663 28.757307 64.001663 64.02213L896.005875 511.718833c0 35.390696 28.622224 64.026223 64.00371 64.026223 35.370229 0 63.990406-28.635528 63.990406-64.026223l0-384.158364C1023.99999 21.643196999999986 937.878503-64.51410799999996 832.004212-64.51410799999996zM489.376675 278.24953500000004c12.438884-12.442977 32.812864-12.442977 45.251747 0l210.750811 210.833703c12.436837 12.446047 8.246197 22.634572-9.374958 22.634572l-64.005756 0c-17.618085 0-31.998273 14.382235-31.998273 32.016693L640.000246 671.784904c0 17.629342-14.367908 32.00953-31.999296 32.00953l-192.001919 0c-17.620131 0-31.999296-14.381212-31.999296-32.00953l0-128.049377c0-17.634458-14.377118-32.016693-32.00032-32.016693l-64.00371 0c-17.619108 0-21.810771-10.188525-9.368818-22.634572L489.376675 278.24953500000004zM384.000758 799.838374c0 17.626271 14.314694 32.00953 31.999296 32.00953 17.69279 0 32.002367-14.384282 32.002367-32.00953 0-17.760331-14.309577-32.017717-32.002367-32.017717C398.316475 767.819634 384.000758 782.0770190000001 384.000758 799.838374zM576.004723 799.838374c0 17.626271 14.315717 32.00953 31.99725 32.00953 17.690743 0 31.999296-14.384282 31.999296-32.00953 0-17.760331-14.30753-32.017717-31.999296-32.017717C590.321464 767.819634 576.004723 782.0770190000001 576.004723 799.838374zM416.000054 831.847904l192.001919 0 0-64.027247-192.001919 0 0 64.027247Z"  horiz-adv-x="1025" />

    
    <glyph glyph-name="morenpaixu" unicode="&#59053;" d="M910.07867047 165.39585498999998L721.21303647 165.39585498999998 721.21303647 670.42882113 612.69355664 670.42882113l0-599.987511 0 0 0-224.34315681L910.07867047 165.39585498999998zM295.48276758 560.86588317L295.48276758 55.832918240000026l108.51947983 0L404.00224741 880.16358483 119.13861166 560.86588317 295.48276758 560.86588317z"  horiz-adv-x="1024" />

    
    <glyph glyph-name="bianji" unicode="&#58906;" d="M919.66326678 624.07167794c-19.75123506 32.68180826-44.12164228 64.64862681-73.9420791 94.29808792-30.1496707 29.94619551-62.68452573 54.4946442-95.96404198 74.19501045l58.44969543 58.47088997c0 0 84.60899021 0.02402111 126.90217969-42.28895167 42.30449441-42.31014621 42.30449441-126.92337561 42.30449442-126.9233756L919.66326678 624.07167794 919.66326678 624.07167794zM398.70289293 95.58554212000001L221.96480505 95.58554212000001 221.96480505 272.3222174l21.22501752 21.21654053c35.93317473-16.91105951 71.61341669-40.84060292 103.74273397-72.97698458 32.14486002-32.10812138 56.04896972-67.83358035 72.99111473-103.75686412L398.70289293 95.58554212000001 398.70289293 95.58554212000001zM870.82495393 575.2093426199999L470.93380093 167.80514653c-20.62872212 34.14993892-46.08715734 67.52554239-77.235836 98.49617957-31.48639089 31.29845844-65.46959329 56.90102169-100.22713255 77.5071367l408.14603347 400.61179587c34.40852209-16.17487391 68.55846103-39.05312934 99.327037-69.83442147C831.72660896 643.79747791 854.6076896 609.66873487 870.82495393 575.2093426199999L870.82495393 575.2093426199999zM134.86324249 762.95205387L134.86324249 8.505175460000032l754.46807294 0L889.3313168 327.57282776l88.06100528 116.31298641 0.02119592-438.84395733c0-46.7413873-37.87749389-84.60899021-84.60333705-84.60899022L131.38437974-79.56713337999997c-46.72019138 0-84.60333706 37.86760293-84.60333706 84.60899022L46.78104268 766.4365684100001c0 46.76116922 37.87749389 84.62312036 84.60333706 84.62312035l438.87363161-0.02402111-116.32852916-88.0836124L134.86324249 762.95205387 134.86324249 762.95205387z"  horiz-adv-x="1024" />

    
    <glyph glyph-name="suoding" unicode="&#58923;" d="M876.08678761 399.12795848c-13.29080565 13.2855071-29.13432557 19.9315721-47.53320967 19.93157208l-61.33402844 0-123.69470601 0L387.96727428 419.05953056 259.16316422 419.05953056l-61.33270413 0c-18.39888409 0-34.07681573-6.64606498-47.02187224-19.93157208-12.94903072-13.29212997-19.42420889-29.13565118-19.42420889-47.53453399l0-324.05429863c0-17.03310867 2.89846342-33.05281524 8.69009173-48.04189849 5.7916283-14.99438178 13.97038129-28.11429933 24.53361163-39.35710529 10.56323035-11.24545461 23.34137296-20.27732126 38.3304562-27.08897452 14.99438178-6.81695311 31.69101407-10.22277972 50.09122248-10.22277974l516.23513826 0c18.39888409 0 35.26243026 3.40582662 50.59858697 10.22277974 15.33483239 6.81165326 28.62166382 16.18397053 39.86844273 28.11032637 11.24148037 11.92503024 20.1011346 25.89938576 26.57763709 41.9137938 6.47517817 16.01308242 9.70879236 33.22237776 9.70879237 51.62258616L896.0183597 351.59342318999995C896.01968402 369.9923073 889.37361903 385.8358272 876.08678761 399.12795848zM537.54679472 164.66108184999996l0-123.23635661c0-13.16893265-10.67583058-23.84476323-23.84476323-23.84476322-13.16893265 0-23.84476323 10.67583058-23.84476322 23.84476322L489.85726956 164.66108184999996c-28.5236349 9.87835488-49.01423394 36.96070654-49.01423394 68.84645283 0 40.23936161 32.61963556 72.85899717 72.85899716 72.85899717 40.23936161 0 72.85899717-32.61963556 72.85899718-72.85899717C586.56102866 201.62311401 566.07042964 174.53943803000004 537.54679472 164.66108184999996zM387.96727428 602.04291398c0 42.93249573 11.24148037 76.15619779 33.73504078 99.66448464 22.48826059 23.51358538 52.12995067 35.2664045 88.93434172 35.26640449 40.88846899 0 73.25905869-11.75414341 97.1130947-35.26640449 23.85006177-23.50828684 35.77509202-56.73198892 35.77509201-99.66448464l0-121.65068057 123.69470601 0L767.2195495 630.66457778c0 32.709716-6.98783993 63.20584276-20.95557258 91.48705597-13.97435552 28.28651175-32.71633886 53.16057401-56.2246257 74.62350981-23.51358538 21.46955995-50.4329974 38.33707905-80.75691174 50.60388551-30.32523865 12.26548086-61.84536589 18.39888409-94.55508189 18.3988841-36.80439104 0-70.70634443-6.13340323-101.71380993-18.3988841-31.0074642-12.26680517-57.92687621-29.13432557-80.75823734-50.60388551-22.83003552-21.46293579-40.71758218-46.33832237-53.6666129-74.62350981-12.95035504-28.28121321-19.42420889-58.77601565-19.42420888-91.48705597L259.16448984 480.3922347l128.80410874 0 0 121.65068057L387.96727428 602.04291398z"  horiz-adv-x="1024" />

    
    <glyph glyph-name="zanting" unicode="&#59311;" d="M288 768C270.336 768 256 753.664 256 736l0-768C256-49.664 270.336-64 288-64S320-49.664 320-32l0 768C320 753.664 305.664 768 288 768zM672 768C654.336 768 640 753.664 640 736l0-768c0-17.664 14.336-32 32-32s32 14.336 32 32l0 768C704 753.664 689.664 768 672 768z"  horiz-adv-x="1024" />

    
    <glyph glyph-name="tijiao" unicode="&#59011;" d="M998.672 597.328 998.672 597.328l-558.56-539.328 0 0c-13.168-12.752-31.376-20.592-51.536-20.592-20.16 0-38.336 7.84-51.536 20.592l0 0L21.328 362.832l0 0C8.16 375.568 0 393.12 0 412.544c0 38.88 32.592 70.352 72.864 70.352 20.112 0 38.32-7.872 51.536-20.608l0 0 264.176-255.104L895.664 696.8l0 0c13.152 12.736 31.376 20.608 51.536 20.608 40.224 0 72.864-31.472 72.864-70.336C1020.048 627.68 1011.888 610.032 998.672 597.328z"  horiz-adv-x="1024" />

    
    <glyph glyph-name="star" unicode="&#59007;" d="M511.99945387 811.05105493L650.765232 529.90436267 961.01857387 484.81885547 736.50792213 265.96558719999996 789.51682027-43.04450559999998 511.99945387 102.8576736 234.49518613-43.04450559999998 287.4898944 265.96558719999996 62.98033493 484.81885547 373.25987307 529.90436267ZM234.49518613-70.11109120000003c-5.6038976 0-11.19360533 1.74535147-15.9122752 5.16728747-8.32616533 6.06670507-12.5023456 16.32159787-10.77118506 26.47170346l50.59007573 295.0025312L44.08164373 465.43115947c-7.37435413 7.18879467-10.0311296 17.94688107-6.8460544 27.7400576 3.18507413 9.79972587 11.6564128 16.94158507 21.84581334 18.42278613l296.20539306 43.04980907L487.72171947 823.03055893c4.55930667 9.23758933 13.9682656 15.08598933 24.2777344 15.08598934 10.29527893 0 19.70533013-5.8484 24.26354453-15.08598934L668.73830933 554.6449045300001l296.1791968-43.04980906c10.18940053-1.48010987 18.6607392-8.62306027 21.84581334-18.42278614 3.18507413-9.79317653 0.52829867-20.55126293-6.8449632-27.7400576L765.59710613 256.53043092999997l50.60208214-295.0025312c1.7311616-10.1501056-2.44392853-20.4049984-10.7700928-26.47170346-8.33926293-6.06670507-19.37459733-6.85915307-28.50630934-2.04879574l-264.92333226 139.26788054-264.9102336-139.26788054C243.12479573-69.08069013 238.80234987-70.11109120000003 234.49518613-70.11109120000003zM511.99945387 129.92207572999996c4.3213536 0 8.65689707-1.03040107 12.59403413-3.11849173l228.9760864-120.36809707-43.74402027 254.95769494c-1.49320853 8.77587413 1.41461867 17.73621547 7.784768 23.96010026l185.2451648 180.56797227-255.9891872 37.20250133c-8.81407787 1.27490347-16.4274752 6.8133088-20.36461226 14.802192l-114.50114134 231.970144L397.53760747 517.9248576c-3.95132587-7.9888832-11.56363307-13.52619733-20.37880214-14.802192l-256.01538346-37.20250133 185.2451648-180.56797227c6.37014933-6.2238848 9.27797653-15.1842272 7.7836768-23.96010027l-43.73092267-254.95769493 228.96298773 120.36809707C503.3425568 128.89167467000004 507.67810027 129.92207572999996 511.99945387 129.92207572999996z"  horiz-adv-x="1024" />

    
    <glyph glyph-name="rect" unicode="&#58920;" d="M62 834h900v-900h-900v900z"  horiz-adv-x="1024" />

    
    <glyph glyph-name="sanjiaoleft" unicode="&#59063;" d="M268.025732 384.002048l487.950584-365.02634L755.976316 749.024292 268.025732 384.002048"  horiz-adv-x="1024" />

    
    <glyph glyph-name="rili" unicode="&#59070;" d="M832.78399463-97.48797565999996L196.73332749-97.48797565999996c-81.07045925 0-146.78122192 65.70428997-146.78122192 146.78769461L49.95210557 563.02299212l0 48.93354666 0 48.92319037c0 81.07693195 65.71076267 146.78381101 146.78122192 146.783811l122.31703766 0 0 73.39384732 67.67457723 0 0-73.39384732 256.07261551 0 0 73.39384732 67.66551544 0 0-73.39384732 122.3209213 0c81.08340464 0 146.78769461-65.70687905 146.78769462-146.783811l0-48.92319037 0-48.93354666 0-513.72327317C979.57168925-31.78368568999997 913.86739927-97.48797565999996 832.78399463-97.48797565999996zM911.89322841 660.87972915c0 54.04308923-25.06226094 79.10923378-79.10923378 79.10923378l-122.3209213 0 0-54.64504952-67.66551544 0 0 54.64504952-256.07261551 0 0-54.64504952-67.67457723 0 0 54.64504952-122.31703766 0c-54.04050015 0-79.10535017-25.06485002-79.10535016-79.10923378l0-42.67445413 794.26525108 0L911.89322841 660.87972915zM911.89322841 556.77296133L117.62797733 556.77296133l0-507.47453691c0-54.04697283 25.06485002-79.10923378 79.10535016-79.10923379l636.05066714 0c54.04697283 0 79.10923378 25.06226094 79.10923378 72.85661394L911.89322841 556.77296133zM685.9963 191.49827539l146.78769463 0 0-68.80470913-146.78769463 0L685.9963 191.49827539zM685.9963 391.78794224l146.78769463 0 0-68.81765451-146.78769463 0L685.9963 391.78794224zM441.37128643 191.49827539l146.77086562 0 0-68.80470913L441.37128643 122.69356626000001 441.37128643 191.49827539zM441.37128643 391.78794224l146.77086562 0 0-68.81765451L441.37128643 322.97028773 441.37128643 391.78794224zM196.73332749 191.49827539l146.783811 0 0-68.80470913L196.73332749 122.69356626000001 196.73332749 191.49827539zM196.73332749 391.78794224l146.783811 0 0-68.81765451L196.73332749 322.97028773 196.73332749 391.78794224z"  horiz-adv-x="1024" />

    
    <glyph glyph-name="xianchangzhuanru" unicode="&#59027;" d="M183.31136-114.3552c-10.38848 3.04128-20.82816 5.9136-31.16544 9.1392-82.30912 25.65632-138.24512 101.10976-138.38336 187.77088-0.26112 154.33216-0.32256 308.66944 0.00512 463.00672 0.22528 107.63776 85.77536 194.57536 193.24416 196.352 51.48672 0.84992 102.99904 0.14336 155.59168 0.14336 0-32.67072 0-63.26272 0-95.71328-50.08384 0-98.88256 0.49664-147.67104-0.13824-49.18272-0.64-88.2432-30.0288-99.49696-74.64448-2.64704-10.48064-2.61632-21.8112-2.62656-32.75264-0.15872-148.82816 1.71008-297.68192-0.9984-446.45888-1.08544-59.22816 42.74688-110.2848 109.76256-109.24544 119.168 1.85344 238.3872 0.52224 357.59104 0.52224 73.71776-0.00512 147.51232 1.92512 221.14816-0.5632 67.24096-2.2784 114.23232 44.75392 113.02912 112.17408-2.56 145.33632-2.6112 290.78016-0.01024 436.11648 1.29024 72.2688-49.0496 117.10976-115.76832 114.36032-43.97056-1.81248-88.05888-0.34304-133.80096-0.34304 0 32.46592 0 63.67744 0 95.89248 2.40128 0.62464 4.92032 1.85344 7.43936 1.84832 51.6608-0.07168 103.40864 1.51552 154.9824-0.8704 88.3712-4.09088 159.05792-64.46592 179.77856-150.2976 1.26976-5.26336 2.97984-10.4192 4.48-15.62624 0-175.07328 0-350.16192 0-525.2352-1.42848-3.63008-3.30752-7.14752-4.20864-10.9056-12.41088-51.55328-39.34208-93.94176-84.92032-121.05216-24.70912-14.6944-53.48864-22.53824-80.43008-33.47456C621.70112-114.3552 402.5088-114.3552 183.31136-114.3552zM613.43232 882.35008c-0.4608-11.648-1.30048-23.30112-1.31072-34.94912-0.1024-123.26912-0.06144-246.53824-0.06144-369.80736 0-8.192 0-16.37888 0-27.05408 65.17248 0 128.77824 0 192.37888 0 0.79872-1.65888 1.60256-3.31776 2.40128-4.97664-97.85856-95.90784-195.72224-191.81056-294.84032-288.96768-98.44224 96.86528-195.80928 192.68096-297.50272 292.75648 18.38592 0 31.10912-0.00512 43.84256 0 44.75904 0 89.54368 0.7936 134.28224-0.39424 17.664-0.47104 21.72928 5.59616 21.64736 22.33856-0.62464 128.77824-0.3584 257.55648-0.30208 386.33984 0.00512 8.23808 0.62464 16.47616 0.95744 24.71936C481.08032 882.35008 547.2512 882.35008 613.43232 882.35008z"  horiz-adv-x="1024" />

    
    <glyph glyph-name="jiaoshikebiao" unicode="&#59129;" d="M814.142586 621.339044H528.54497c-13.512328 0-24.47608 10.961946-24.47608 24.47608 0 13.492459 10.942078 24.456212 24.47608 24.456211h285.597616c13.534002 0 24.47608-10.963752 24.476079-24.456211-0.001806-13.51594-10.943884-24.47608-24.476079-24.47608zM820.200646 466.112543H604.942635c-10.20514 0-18.437888 10.942078-18.437888 24.474274 0 13.534002 8.252617 24.456212 18.437888 24.456211h215.258011c10.203334 0 18.436082-10.942078 18.436082-24.454405 0-13.514134-8.250811-24.47608-18.436082-24.47608zM392.294611-113.212481c42.512987 0 76.955786 32.907512 76.955787 73.486039v2.510645l299.288759 285.734888c8.053933 7.674626 8.053933 20.211596 0 27.884416-8.052126 7.694495-21.167086 7.694495-29.219213 0l-270.228494-257.852278V261.895952c0 52.93668-40.421385 98.700863-96.927155 110.040308l-41.257665 8.191205-86.243366-163.834942-86.223499 163.834942-41.277533-8.191205c-56.50577-11.36112-96.925349-57.123497-96.925349-110.040308v-301.781342c0-40.580333 34.301914-73.507713 76.795033-73.507713l295.262695 0.180622zM248.051731 621.776149c-60.591438 0-109.682677-49.111107-109.682677-109.682677s49.111107-109.682677 109.682677-109.682677 109.682677 49.111107 109.682677 109.682677-49.112913 109.682677-109.682677 109.682677zM750.959222-113.371429h-141.013359c-15.587674 0-28.223985 14.330545-28.223986 29.896545s12.636311 29.896545 28.223986 29.896545h141.013359c108.864459 0 193.852504 95.151641 193.852504 204.0161V639.31454c0 108.864459-84.988044 184.086275-193.852504 184.086275H262.082444C188.495257 823.621174 96.732083 777.318738 75.40605 688.284762c-3.626889-15.166825-24.196116-25.590517-39.32501-21.963629-15.146956 3.626889-22.541619 20.468079-18.91473 35.616842C44.611815 816.445064 144.168825 883.19571 262.082444 883.19571h488.876778c139.958528 0 253.645593-103.900968 253.645593-243.88117v-488.876779c0.001806-139.97659-113.667197-263.80919-253.645593-263.80919z"  horiz-adv-x="1024" />

    
    <glyph glyph-name="zhuanyefangxiangguanli" unicode="&#58905;" d="M595.399111 703.260444V258.844444L456.988444 386.616889 315.562667 258.844444V703.260444H217.486222c-36.920889 0-66.844444 29.184-66.844444 65.137778 0 35.896889 29.923556 65.080889 66.844444 65.080889H938.666667V895.943111L249.116444 896C158.663111 896 85.333333 824.547556 85.333333 736.426667v-704.853334C85.333333-56.604444 158.663111-128 249.116444-128h525.767112C865.336889-128 938.666667-56.547556 938.666667 31.573333V703.260444H595.399111z"  horiz-adv-x="1024" />

    
    <glyph glyph-name="piliangxiugai" unicode="&#59510;" d="M416.426667 226.986667l105.813333-112.64 392.533333 416.426666-105.813333 112.64-392.533333-416.426666zM286.72 8.533333l197.973333 61.44-105.813333 116.053334L286.72 8.533333zM986.453333 721.92c-47.786667 47.786667-58.026667 54.613333-105.813333 3.413333l-30.72-37.546666L955.733333 571.733333l34.133334 34.133334c47.786667 47.786667 44.373333 64.853333-3.413334 116.053333zM13.653333 742.4h546.133334c6.826667 0 13.653333-6.826667 13.653333-13.653333v-88.746667c0-6.826667-6.826667-13.653333-13.653333-13.653333H13.653333c-6.826667 0-13.653333 6.826667-13.653333 17.066666V728.746667c0 10.24 6.826667 13.653333 13.653333 13.653333zM13.653333 448.853333h317.44c6.826667 0 13.653333-6.826667 13.653334-13.653333v-88.746667c0-6.826667-6.826667-13.653333-13.653334-13.653333H13.653333c-6.826667 0-13.653333 6.826667-13.653333 13.653333v88.746667c0 6.826667 6.826667 13.653333 13.653333 13.653333zM13.653333 155.306667h174.08c6.826667 0 13.653333-6.826667 13.653334-13.653334v-88.746666c0-6.826667-6.826667-13.653333-13.653334-13.653334H13.653333c-6.826667-3.413333-13.653333 3.413333-13.653333 13.653334v88.746666c0 6.826667 6.826667 13.653333 13.653333 13.653334z"  horiz-adv-x="1024" />

    
    <glyph glyph-name="fenbu" unicode="&#59022;" d="M894.95963218 597.54703328c-66.51648329 0-120.4714576-53.75751408-120.80147857-120.19667028L621.16927547 434.75832781c-16.00394514 25.02635908-40.98197479 43.756084-70.39250349 51.66692109l1.54792258 152.08995076c52.46090455 13.16769809 91.30671858 60.6313397 91.30671857 117.17400972 0 66.72222857-54.08891587 120.81114444-120.81114444 120.81114445s-120.81114444-54.08891587-120.81114446-120.81114445c0-54.55840176 36.16836368-100.66053433 85.83306557-115.66060817l-1.57001601-154.0355555c-29.73640714-8.43693742-54.80142974-27.97997759-70.43530954-53.85831547l-154.1032167 43.79474755c0.00276167 0.26926397 0.01104672 0.53576624 0.01104672 0.80503021 0 66.72222857-54.08891587 120.81114444-120.81114444 120.81114444s-120.81114444-54.08753504-120.81114445-120.8097636c0-66.72222857 54.08891587-120.81114444 120.81114445-120.81114446 43.69946953 0 81.97775798 23.20364919 103.19161555 57.95941272L398.50869277 370.01208246l-0.00414254-0.25269386c0-28.65382793 9.9820983-54.97265401 26.65022788-75.68388552L325.17223664 146.95519843a120.66891786 120.66891786 0 0 1-37.99107357 6.1019356c-66.72222857 0-120.81114444-54.08891587-120.81114445-120.81114445s54.08891587-120.81114444 120.81114445-120.81114445 120.81114444 54.08891587 120.81114445 120.81114445c0 30.11199583-11.01772893 57.64734269-29.2420661 78.80182408l98.76463987 145.32935411c13.02547149-4.80532606 27.10590535-7.43030446 41.79943256-7.43030446a120.60125664 120.60125664 0 0 1 40.47106368 6.95391438l103.30760616-147.04435842c-17.11690285-20.84931559-27.39588193-47.52854113-27.39588192-76.61042969 0-66.72222857 54.08891587-120.81114444 120.81114445-120.81114445s120.81114444 54.08891587 120.81114445 120.81114445-54.08891587 120.81114444-120.81114445 120.81114445a120.57502066 120.57502066 0 0 1-40.70304495-7.03676484l-103.23165992 146.93803366c17.21218085 20.87693241 27.5505361 47.63072336 27.5505361 76.80098575 0 1.10743435-0.01657008 2.212107-0.04556774 3.31401798l150.95904213 42.02865212c21.05920339-35.428233 59.71308054-59.17731431 103.91793781-59.17731432 66.72222857 0 120.81114444 54.08891587 120.81114445 120.81114446 0.00414253 66.72222857-54.08477335 120.81114444-120.80700192 120.81114444z"  horiz-adv-x="1024" />

    
    <glyph glyph-name="gongkaike" unicode="&#59040;" d="M512-128a512 512 0 1 0 512 512 512 512 0 0 0-512-512z m0 972.8a460.8 460.8 0 1 1 460.8-460.8A460.8 460.8 0 0 1 512 844.8z m-128-204.544L742.2208 384 384 128V640.256z"  horiz-adv-x="1024" />

    
    <glyph glyph-name="qingkong" unicode="&#58916;" d="M375.93844468 392.98689269L58.52139487 75.74958074000006a91.12709187 91.12709187 0 0 1-0.35947569-127.61387621c34.15019226-34.15019226 92.205519-34.86914365 127.61387618 0.53921358l317.23731195 317.23731193 317.23731195-317.23731193a91.12709187 91.12709187 0 0 1 127.61387621-0.53921358 91.12709187 91.12709187 0 0 1-0.53921358 127.61387621L630.08776996 392.98689269l317.23731193 317.41704982a91.12709187 91.12709187 0 0 1 0.53921358 127.61387622 91.12709187 91.12709187 0 0 1-127.61387621-0.5392136L503.01310731 520.06155532 185.59605749 837.47860513a91.12709187 91.12709187 0 0 1-127.61387622 0.35947569 91.12709187 91.12709187 0 0 1 0.5392136-127.61387618L375.93844468 392.98689269zM375.93844468 392.98689269L58.52139487 75.74958074000006a91.12709187 91.12709187 0 0 1-0.35947569-127.61387621c34.15019226-34.15019226 92.205519-34.86914365 127.61387618 0.53921358l317.23731195 317.23731193 317.23731195-317.23731193a91.12709187 91.12709187 0 0 1 127.61387621-0.53921358 91.12709187 91.12709187 0 0 1-0.53921358 127.61387621L630.08776996 392.98689269l317.23731193 317.41704982a91.12709187 91.12709187 0 0 1 0.53921358 127.61387622 91.12709187 91.12709187 0 0 1-127.61387621-0.5392136L503.01310731 520.06155532 185.59605749 837.47860513a91.12709187 91.12709187 0 0 1-127.61387622 0.35947569 91.12709187 91.12709187 0 0 1 0.5392136-127.61387618L375.93844468 392.98689269z"  horiz-adv-x="1024" />

    
    <glyph glyph-name="jiaoxuejihua" unicode="&#59010;" d="M750.82666667-93.86666666999997C619.09333333-93.86666666999997 512 13.226666669999986 512 144.96000000000004s107.09333333 238.82666667 238.82666667 238.82666667c131.62666667 0 238.82666667-107.09333333 238.82666666-238.82666667S882.45333333-93.86666666999997 750.82666667-93.86666666999997z m0 397.97333334c-87.78666667 0-159.25333333-71.46666667-159.25333334-159.25333334 0-87.78666667 71.36-159.25333333 159.25333334-159.25333333 87.78666667 0 159.25333333 71.46666667 159.25333333 159.25333333 0 87.89333333-71.46666667 159.25333333-159.25333333 159.25333334z m-39.57333334-79.68h39.89333334v-79.68h79.68v-39.78666667H711.25333333v119.46666667zM113.6 423.57333333l0.42666667-329.17333333c0-7.68 2.98666667-15.04 8.42666666-20.58666667 5.44-5.44 12.58666667-8.53333333 20.26666667-8.53333333l289.70666667-0.32c8.85333333-21.65333333 65.28-61.76 79.68-79.68H113.6c-23.89333333 0-36.05333333 19.62666667-53.01333333 36.58666667-16.96 16.96-26.24 39.46666667-26.24 63.25333333V652.37333333c0 23.89333333 9.28 46.4 26.24 63.36 16.96 16.96 39.46666667 26.24 63.25333333 26.24l69.33333333 0.42666667V861.86666667l79.89333334-0.53333334v-119.46666666h318.4v119.46666666l79.78666666 0.53333334v-119.57333334l79.46666667-0.42666666c23.89333333 0 46.4-9.28 63.36-26.24 16.96-16.85333333 16.64-29.12 16.64-53.12v-199.25333334c-19.2-33.81333333-51.2-39.78666667-79.68-39.78666666H113.6v0.10666666z m637.33333333 212.26666667c0 14.18666667 2.88 26.77333333-39.68 26.77333333h-39.89333333v-79.68h-79.68v79.68H272.96v-79.68h-79.68v79.68l-49.38666667-0.32c-7.89333333 0-15.46666667-2.77333333-21.12-7.78666666-5.65333333-5.01333333-8.74666667-11.62666667-8.74666666-18.77333334v-53.12l-0.42666667-79.46666666h637.44l-0.10666667 78.61333333v54.08zM193.28 304h79.68v-79.68h-79.68V304zM193.28 304h79.68v-79.68h-79.68V304zM352.64 304h79.68v-79.68h-79.68V304zM193.28 304h79.68v-79.68h-79.68V304zM193.28 304h79.68v-79.68h-79.68V304zM352.64 304h79.68v-79.68h-79.68V304z"  horiz-adv-x="1024" />

    
    <glyph glyph-name="qingchu" unicode="&#59340;" d="M619.25120126 116.47978255999999h0.05048701c19.40383415 0 35.13376869 15.72864 35.13376868 35.13376869V400.55973357c0 19.40124507-15.72864 35.12988507-35.13376868 35.12988508h-0.05048701c-19.40383415 0-35.13376869-15.72864-35.13376869-35.12988508v-248.94618232c0-19.40383415 15.72993454-35.13376869 35.13376869-35.13376869zM405.53846708 719.18443837c19.66015273 0 35.60498062 15.63672779 35.71113276 34.9654787h0.00517815v17.49309568c0 9.86049802 7.9963629 17.85815547 17.85815546 17.85815544h107.1476382c9.86049802 0 17.85815547-7.9963629 17.85815546-17.85815544v-17.49309568h0.00517815c0.1048576-19.32875093 15.79983961-34.96547872 35.15318677-34.9654787 19.41548499 0 35.15836492 15.74029085 35.15836492 35.15836492 0 1.16896805-0.05954877 2.32240165-0.17087905 3.46159532V789.56589511c0 39.11576842-31.80551079 70.82418883-71.03519858 70.82418884H441.15768763c-39.22968779 0-71.03519858-31.70842043-71.03519858-70.82418884v-30.73233858a34.9784241 34.9784241 0 0 1-0.30033288-4.49075324c0.00129454-19.41807408 15.99013673-35.15836492 35.71631091-35.15836492z m-0.17087905-602.70465581h0.34305264c19.63296743 0 35.54413733 15.91505351 35.54413732 35.54413732v248.12415052c0 19.62908382-15.9111699 35.54025371-35.54413732 35.54025371h-0.34305264c-19.62908382 0-35.54413733-15.9111699-35.54413733-35.54025371v-248.12415052c0-19.62908382 15.91505351-35.54413733 35.54413733-35.54413732zM974.2019445 647.7531110699999H50.05696317c-19.41807408 0-35.15836492-15.74029085-35.15836493-35.15836492 0-19.41548499 15.74029085-35.15836492 35.15836493-35.15836491h106.5896922v-565.86986382c0-59.17334439 47.97041019-107.14763821 107.14375458-107.14763822h495.55960668c59.17334439 0 107.14763821 47.97299927 107.14763821 107.14763822v565.86856928h107.70428966c19.41807408 0 35.15836492 15.74287991 35.15836492 35.15836492 0 19.41936862-15.74029085 35.15965947-35.15836492 35.15965945zM797.29811152 46.16693634000001c0-39.45105383-31.98286254-71.43132729-71.4352109-71.43132729H299.50930995c-39.45105383 0-71.43132729 31.98027346-71.43132728 71.43132729V577.4350867h569.22012885v-531.26815036z"  horiz-adv-x="1024" />

    
    <glyph glyph-name="shoudongpaike" unicode="&#59023;" d="M417.60032 108.914824h-127.621074v172.606694h123.469074c0 13.808536 4.045469 20.711455 10.948389 34.521339h-134.417463v207.128032h241.65072v-65.211618c13.808536 6.902919 20.711455 6.902919 34.521339 13.808536V523.169541h227.842184v-53.183089c11.841089-11.841089 25.98405-5.636687 34.521339-22.708568V817.194256C828.51348 861.478661 800.89506 896 759.469454 896h-690.426776C27.617071 896 0 861.478661 0 813.148787v-662.809705c0-48.329874 27.617071-82.851213 69.042678-82.851213h380.705639c-13.808536 13.808536-18.339461 27.61842-32.147997 41.426955zM566.149956 723.393306h227.842185v-165.702426H566.149956V723.393306z m-276.17071 0h241.65072v-165.702426H289.979246V723.393306z m-34.521339-614.478482H103.564016c-41.425607 0-69.042678 34.521339-69.042677 82.849865v89.756829h220.936568v-172.606694z m0 207.126684H34.521339v207.128033h220.936568v-207.128033z m0 241.649372H34.521339V723.393306h220.936568v-165.702426zM966.744472 311.41484c-7.233299 19.806618-27.066887 32.958439-49.492273 32.958439-6.196311 0-12.326545-1.094974-18.216748-3.2148-5.385868-1.972841-11.591618-5.48296-17.040866-9.8669-9.595853 20.905637-30.907386 34.498414-54.295593 34.498415-7.079571 0-13.943384-1.317475-20.579303-3.654408-12.941457-4.609138-23.710496-13.350049-30.72534-24.932227a20.308256 20.308256 0 0 0-0.365441-0.461184c-11.138526 13.127548-27.789678 21.008123-45.693577 21.008123-7.078223 0-13.943384-1.314778-20.580651-3.653059-15.076116-5.424974-28.791606-15.920271-37.35047-29.713973-2.881723-3.675983-5.406096-7.636498-7.445012-11.864013-12.84032 19.416905-27.217918 39.195204-40.913181 52.761012-25.444654 25.289578-63.067519 55.472825-96.628733 55.472824a49.78894 49.78894 0 0 1-16.598561-2.852056c-12.184954-4.427092-22.275703-12.817396-28.802394-23.610707a55.484961 55.484961 0 0 1-9.335594-17.026033c-5.675794-16.953214-2.947799-35.589343 7.520527-51.159005 8.117909-11.83974 18.822221-18.781766 29.883882-26.238915 16.814319-11.03604 35.699919-23.678132 55.317749-57.739636 21.454473-37.107742 46.955763-101.751646 62.594199-143.387617l-56.690511 27.766753c-9.36661 4.311122-19.329253 6.576585-29.655987 6.576585-24.139316 0-46.77102-12.85785-59.344339-33.095985a68.155371 68.155371 0 0 1-8.07206-13.097881c-16.307287-34.933977-1.175883-76.304295 33.271289-92.232657 0.582548-0.221152 59.518294-31.431949 141.180139-69.21933l13.424216-6.136977c52.221616-24.413059 101.572297-47.28884 158.877719-47.28884 27.292085 0 54.661034 5.120216 83.355548 15.495496 48.768134 17.560034 77.624467 41.166697 95.281592 67.73734 22.456401 30.196732 29.007364 64.673571 32.990803 98.68518 6.714131 58.904731-62.850412 249.372173-65.871029 257.486036z"  horiz-adv-x="1033" />

    
    <glyph glyph-name="daochu" unicode="&#59049;" d="M103.90375993-108.54614470000001C69.04630044-108.54614470000001 40.68621084-80.18882332999999 40.68621084-45.32859561999999V651.93269932c0 34.85884416 28.3600896 63.21754909 63.21754909 63.21755022h147.50899882c23.82507691 0 43.83199687-13.85552213 52.21284409-36.15693484 8.38084722-22.30141155 2.45225586-45.90368199-15.47744256-61.59562866l-19.69692899-17.24052025H155.64884878v-591.79907299h625.47053795v138.2784421l14.99446386 10.71685631c10.86493241 7.76501589 23.51923655 11.86963797 36.59562781 11.86963797 34.95018041 0 63.38084864-28.39468601 63.38084864-63.29781474v-151.25381006c0-34.85884416-28.35732139-63.21754909-63.21616555-63.21754908H103.90375993z m554.3205228 524.16275796c-35.88015559-0.29615331-67.63354681-1.54995826-94.45059697-3.72820308-7.95599189-0.65596416-13.80293405-0.97702798-18.96069803-1.26210959-14.42430179-0.79573789-21.00747378-1.15831694-49.9446454-8.50954922-38.46664875-9.7771941-75.08165177-25.60752867-108.82923065-47.0440084-6.70080227-4.26376989-14.51425451-9.03681138-22.7857738-14.0921674-35.21450439-21.51674539-83.40437447-50.96042155-104.69139569-76.94436921-6.24550229-8.14973725-14.90451229-12.6363136-24.39939072-12.6363136-2.38306077 0-4.82009429 0.28369806-7.24605611 0.84417309-13.45557731 2.9366181-21.85579861 13.71713309-21.85579975 28.11929259v1.71325781l0.34182144 1.67727672c14.30667037 70.30169031 32.54636089 130.22557753 54.21395058 178.10684019 21.94298425 48.53445973 50.9341275 91.66897493 86.16247182 128.20509581 35.87877205 37.2349861 81.76584704 64.68585813 136.38804594 81.59009338 49.43122205 15.23387847 108.64240526 23.54968235 176.07251968 24.73429333V880.8809472l370.59093048-324.80626234-370.60615282-324.78827178V415.61661326z"  horiz-adv-x="1024" />

    
    <glyph glyph-name="xuexiao" unicode="&#58893;" d="M513.516 695.87c6.18 0 15.288-1.02 31.068-8.95l1.362-0.681 1.402-0.579c41.324-17.065 107.014-42.501 176.559-69.427 67.025-25.953 136.156-52.726 185.062-72.648l-41.708-17.193c-57.87-23.859-104.53-43.033-142.714-58.721-95.376-39.188-138.906-57.073-171.735-71.89-18.432-8.315-32.907-12.022-46.925-12.022-12.693 0-26.245 2.975-43.94 9.636a6539.68 6539.68 0 0 1-22.871 8.535c-67.139 24.986-245.479 91.351-336.799 135.056a393.385 393.385 0 0 0-10.414 5.166 362.665 362.665 0 0 0 8.489 3.307c52.844 20.076 123.807 46.49 192.435 72.028 60.508 22.523 117.663 43.797 158.505 59.27l0.425 0.163 0.425 0.17 1.26 0.511c27.202 10.998 45.168 18.268 60.114 18.268M907.56 331.418l4.311-4.317 4.73-4.725-12.302-12.81-9.908 9.881 13.169 11.97M726.026 317.85v-167.46c-26.987-22.866-102.241-76.242-216.58-76.242-124.76 0-203.326 53.555-231.322 76.564V305.01c25.733-9.186 52.95-18.315 82.452-28.212 18.32-6.138 37.258-12.492 57.15-19.302 31.283-11.1 64.081-16.968 94.858-16.968 31.826 0 60.129 6.216 84.157 18.473 24.827 10.317 53.745 23.788 84.321 38.027 14.229 6.635 29.328 13.67 44.964 20.823m-212.51 418.98c-23.23 0-45.538-9.155-76.729-21.776-87.137-33.024-251.515-93.532-350.966-131.313-76.206-28.615-71.67-49.991-1.213-83.706C190.198 449.5 402.847 371.89 447.514 355.062c21.35-8.044 39.905-12.268 58.378-12.268 20.178 0 40.258 5.038 63.77 15.652 45.035 20.321 110.14 46.346 313.22 130.079v-124.18l-47.861-43.516 69.888-69.729 69.038 71.85-33.111 33.12V513.357c23.296 14.623 79.503 26.629-4.112 63.12-96.05 39.659-289.208 112.143-373.75 147.046-18.703 9.4-34.278 13.306-49.458 13.306z m253.47-355.943c-72.207-30.935-138.424-64.44-187.535-84.705-19.64-10.363-42.9-14.69-66.867-14.69-27.71 0-56.351 5.786-81.383 14.69-75.73 25.922-138.311 45.46-194.037 68.162v-231.808s95.493-99.338 272.281-99.338c164.163 0 257.541 99.338 257.541 99.338V380.887z"  horiz-adv-x="1024" />

    
    <glyph glyph-name="xueji" unicode="&#59008;" d="M832.810519 491.80042H336.644455c-43.21796 0-78.38759-35.168414-78.38759-78.387589v-65.825531c0-43.21796 35.16963-78.388806 78.38759-78.388806h630.455304v49.327489h-24.849232V442.47658h24.849232v49.326273H832.810519v-0.002433z m60.121033-173.276869H336.644455c-16.015166 0-29.018746 13.048584-29.06375 29.063749v65.870534c0 16.012733 13.048584 29.019962 29.06375 29.019962h556.284664v-123.954245h0.002433zM797.288159 790.314744h-773.664968c-1.718647 0-3.397156-0.178798-5.017283-0.514499v-48.299707a24.885721 24.885721 0 0 1 5.017283-0.512067h21.144349V529.975555c-11.280067-7.828177-18.711727-20.835406-18.711727-35.609935 0-23.93335 19.464624-43.396757 43.399189-43.396757 23.930917 0 43.395541 19.46584 43.395541 43.396757 0 14.774529-7.43166 27.781758-18.712943 35.609935V740.989687H210.26002v-194.511225c0-13.626331 11.013695-24.686246 24.683814-24.686247H797.288159c13.626331 0 24.642459 11.059915 24.642459 24.686247V740.989687h183.463474V790.314744H797.288159z m-70.115459-553.078468H129.083429c-46.493485 0-84.315889-37.846731-84.315889-84.337783v-92.501662c0-46.493485 37.822404-84.314673 84.315889-84.314673h729.640594v49.368844h-24.630296V187.890542h24.630296v49.345734H727.1727z m57.772336-215.678685H160.97875c-17.915044 0-32.513207 17.87004-32.513207 39.858508v90.464341c0 21.986036 14.598164 39.904729 32.513207 39.904729h623.966286V21.557591z"  horiz-adv-x="1024" />

    
    <glyph glyph-name="kecheng" unicode="&#58889;" d="M946.802 831.673c-13.881 9.443-31.63 11.378-47.29 5.134L512.229 681.856 124.942 836.807c-15.644 6.244-33.365 4.31-47.317-5.134S55.339 806.5 55.339 789.632v-649.785c0-20.779 12.643-39.41 31.872-47.147l405.262-162.104s8.334-2.674 9.87-2.973c3.3-0.64 6.585-0.981 9.885-0.981s6.584 0.341 9.841 0.981c1.536 0.299 9.87 3.086 9.87 3.086l405.206 162.006c19.328 7.737 31.971 26.368 31.971 47.146V789.632a50.779 50.779 0 0 1-22.314 42.04z m-27.364-690.347L550.3-5.646V625.72l369.138 146.987v-631.382z m-70.243 208.17l-203.108-81.308v-54.812l203.108 81.294v54.827z m0 210.874l-203.108-81.223v-53.12l203.108 81.223v53.12z m-367.63-569.245L109.78 138.61V770.034l371.783-147.542v-631.367zM376.447 467.982L173.34 549.291v-54.827l203.108-81.308v54.826z m0-212.58l-203.108 81.21v-53.092l203.108-81.252v53.135z"  horiz-adv-x="1024" />

    
    <glyph glyph-name="pipeifanwei" unicode="&#59050;" d="M514.842 379.5m-507.5 0a507.5 507.5 0 1 1 1015 0 507.5 507.5 0 1 1-1015 0ZM514.842-38.038c-79.588 0-156.994 22.482-223.85 65.018-14.911 9.487-19.309 29.266-9.822 44.177 9.486 14.911 29.264 19.31 44.176 9.821 56.571-35.991 122.098-55.016 189.496-55.016 194.942 0 353.539 158.597 353.539 353.538 0 194.942-158.597 353.539-353.539 353.539-194.942 0-353.539-158.597-353.539-353.539 0-70.895 20.896-139.274 60.43-197.748 9.898-14.641 6.054-34.534-8.586-44.433-14.642-9.898-34.534-6.055-44.433 8.587-46.717 69.098-71.411 149.873-71.411 233.594 0 56.354 11.044 111.038 32.826 162.535 21.031 49.724 51.133 94.374 89.469 132.709 38.335 38.336 82.985 68.438 132.709 89.469 51.497 21.781 106.181 32.825 162.535 32.825s111.038-11.044 162.534-32.825c49.725-21.032 94.375-51.133 132.71-89.469 38.336-38.335 68.438-82.985 89.47-132.709 21.781-51.497 32.825-106.181 32.825-162.535s-11.044-111.038-32.825-162.534c-21.032-49.725-51.134-94.374-89.47-132.71-38.335-38.336-82.985-68.438-132.71-89.469-51.496-21.781-106.181-32.825-162.534-32.825zM514.842 189.984c-104.5 0-189.516 85.017-189.516 189.516 0 104.5 85.016 189.516 189.516 189.516 104.499 0 189.516-85.016 189.516-189.516-0.001-104.499-85.017-189.516-189.516-189.516z m0 315.032c-69.209 0-125.516-56.306-125.516-125.516 0-69.21 56.306-125.516 125.516-125.516 69.21 0 125.516 56.306 125.516 125.516-0.001 69.209-56.306 125.516-125.516 125.516zM877.878 347.5H151.806c-17.673 0-32 14.327-32 32 0 17.673 14.327 32 32 32h726.072c17.673 0 32-14.327 32-32 0-17.673-14.327-32-32-32zM514.842-15.536c-17.673 0-32 14.327-32 32V742.536c0 17.673 14.327 32 32 32 17.673 0 32-14.327 32-32v-726.072c0-17.673-14.327-32-32-32z"  horiz-adv-x="1024" />

    
    <glyph glyph-name="zhuanye" unicode="&#58894;" d="M282.492928 658.15893333H87.81824a20.45815467 20.45815467 0 0 1-20.45815467-20.45815466v-709.71118934a20.45815467 20.45815467 0 0 1 20.45815467-20.45815466h194.674688a20.45815467 20.45815467 0 0 1 20.447232 20.45815466V637.71170133a20.447232 20.447232 0 0 1-20.447232 20.447232z m-174.21653333-40.90538666h153.780224v-161.316864H108.27639467V617.25354667z m0-668.80580267V430.36672h153.780224v-481.918976H108.27639467zM964.11101867-38.510591999999974L811.94734933 654.74013867a20.48 20.48 0 0 1-24.35754666 15.597568l-190.16362667-41.73550934a20.45815467 20.45815467 0 0 1-15.597568-24.35754666l152.174592-693.239808a20.43630933 20.43630933 0 0 1 24.35754667-15.597568l190.152704 41.73550933a20.46907733 20.46907733 0 0 1 15.597568 24.346624z m-337.94730667 631.52674133l150.208512 32.97553067 33.18306133-151.16970667-150.208512-32.97553066-33.18306133 151.16970666z m143.40369067-653.28469333L664.829952 416.87722667l150.208512 32.97553066 104.726528-477.15669333-150.19758933-32.964608zM546.39547733 864.59733333H351.72078933a20.447232 20.447232 0 0 1-20.447232-20.447232v-916.13866666a20.447232 20.447232 0 0 1 20.447232-20.45815467H546.4064a20.46907733 20.46907733 0 0 1 20.447232 20.45815467V844.13917867A20.447232 20.447232 0 0 1 546.39547733 864.59733333zM372.16802133 823.69194667h153.76930134v-173.20072534H372.16802133V823.69194667z m0-875.24420267V624.93218133h153.76930134v-676.48443733H372.16802133z"  horiz-adv-x="1024" />

    
    <glyph glyph-name="jiaocai" unicode="&#59013;" d="M1001.516 678.08h-39.731v47.79a22.474 22.474 0 0 1-14.6 21.054c-192.242 71.997-328.85 86.753-406.022 43.865-12.495-6.94-21.95-14.677-29.157-22.241-7.21 7.567-16.677 15.301-29.166 22.241-77.172 42.89-213.786 28.126-406.028-43.865a22.48 22.48 0 0 1-14.6-21.054v-47.79H22.484C10.064 678.08 0 668.018 0 655.598v-636.605c0-12.42 10.064-22.484 22.484-22.484H426.51v-20.77c0-12.42 10.064-22.483 22.484-22.483H575.01c12.42 0 22.484 10.064 22.484 22.484v20.77h404.025c12.42 0 22.484 10.063 22.484 22.483V655.597c-0.003 12.417-10.067 22.484-22.487 22.484z m-467.029 44.468c1.853 4.803 8.895 18.797 30.998 30.267 36.422 18.908 130.13 37.941 351.332-42.606v-572.335C740.529 200.2 614.2 211.31 541.16 170.718a138.301 138.301 0 0 1-6.676-3.972V722.548z m-427.304-12.342c221.196 80.547 314.916 61.517 351.338 42.606 22.103-11.47 29.145-25.467 30.998-30.267v-555.802a134.502 134.502 0 0 1-6.676 3.972c-73.04 40.592-199.396 29.446-375.663-32.865V710.206z m319.326-664.77v-3.96H44.97V633.113h17.246V105.8c0-12.42 10.064-22.484 22.484-22.484 2.863 0 5.591 0.558 8.113 1.535-0.01-0.012-0.015-0.021-0.024-0.03 231.541 86.663 328.529 67.228 365.736 47.918 13.053-6.775 20.835-14.423 25.416-20.541-33.397-9.624-57.43-35.909-57.43-66.76z m126.016-47.213h-81.047v47.214c0 12.168 16.644 25.722 40.525 25.722s40.525-13.557 40.525-25.722v-47.214z m426.507 43.254H597.49v3.96c0 30.851-24.043 57.124-57.437 66.748 4.578 6.124 12.364 13.778 25.425 20.553 37.192 19.313 134.15 38.748 365.593-47.873 0.113-0.042 4.562-1.559 8.226-1.553 12.42 0.021 22.484 10.064 22.484 22.484V633.112h17.247v-591.635z"  horiz-adv-x="1025" />

    
    <glyph glyph-name="wenhuashiyejianshe" unicode="&#59033;" d="M508.7 268.8c-16.6 0-32.6 5.2-46 15l-0.1 0.1-367 173.3c-20.1 14.7-32 38.3-32 63.1 0 24.9 12 48.4 32 63.1l367 173.3 0.1 0.1c13.5 9.8 29.4 15 46 15s32.5-5.2 46-15l0.1-0.1 367-173.3c20.1-14.7 32-38.2 32-63.1s-12-48.4-32-63.1l-367-173.3-0.1-0.1c-13.4-9.8-29.3-15-46-15z m-17.1 54.3c5-3.6 11-5.5 17.2-5.5 6.2 0 12.1 1.9 17.2 5.5l367 173.3 0.1 0.1c7.7 5.6 12.1 14.3 12.1 23.8s-4.4 18.2-12.1 23.8l-0.1 0.1-367 173.3c-5 3.6-11 5.5-17.2 5.5-6.2 0-12.1-1.9-17.2-5.5l-367-173.3-0.1-0.1c-7.7-5.6-12.1-14.3-12.1-23.8s4.4-18.2 12.1-23.8l0.1-0.1 367-173.3zM241.5 20c-25.8 0-46.8 21-46.8 46.8V311.1c0 13.4 10.9 24.4 24.4 24.4 13.4 0 24.4-10.9 24.4-24.4V100c0-17.2 14-31.2 31.2-31.2h468.2c17.2 0 31.2 14 31.2 31.2V311.1c0 13.4 10.9 24.4 24.4 24.4 13.4 0 24.4-10.9 24.4-24.4v-244.3c0-25.8-21-46.8-46.8-46.8H241.5zM935.6 416.9c-13.4 0-24.4-9.1-24.4-20.2v-170.5c0-11.1 11-20.2 24.4-20.2s24.4 9 24.4 20.1V396.6c0 11.2-11 20.3-24.4 20.3zM935.6 175.8c-13.4 0-24.4-9.1-24.4-20.2v-5.4c0-11.1 11-20.2 24.4-20.2s24.4 9 24.4 20.2v5.4c0 11.1-11 20.2-24.4 20.2z"  horiz-adv-x="1024" />

    
    <glyph glyph-name="org" unicode="&#58896;" d="M555.68665145 353.19781261a252.27504981 252.27504981 0 0 0-252.00091249 252.00091136c0 138.91918621 113.01319111 252.00091136 252.00091249 252.0009125s252.06944654-113.01319111 252.06944541-252.0009125A252.34358386 252.34358386 0 0 0 555.68665145 353.19781261z m0 435.46744491c-101.15674339 0-183.46653241-82.30978901-183.46653354-183.46653355S454.52990692 421.73219157 555.68665145 421.73219157c101.22527744 0 183.53506759 82.30978901 183.53506646 183.4665324S656.84339485 788.66525752 555.68665145 788.66525752zM258.45304889-110.77993359000004a218.96734151 218.96734151 0 0 0-218.69320419 218.69320306c0 120.55197241 98.14123065 218.62466901 218.69320419 218.62466901s218.69320419-98.14123065 218.6932042-218.62466901a218.96734151 218.96734151 0 0 0-218.6932042-218.69320306z m0 368.85202716a150.29589333 150.29589333 0 0 1-150.1588241-150.09029006c0-82.85806478 67.36929451-150.15882411 150.1588241-150.1588241s150.15882411 67.30076046 150.15882411 150.1588241c0 82.72099555-67.36929451 150.09029006-150.15882411 150.09029006zM830.02977053-56.84337778999998a164.96225053 164.96225053 0 0 0-164.8251813 164.75664726 164.96225053 164.96225053 0 0 0 164.8251813 164.68811321 164.89371648 164.89371648 0 0 0 164.68811321-164.68811321 164.89371648 164.89371648 0 0 0-164.68811321-164.75664726z m0 260.97891556c-53.04560981 0-96.29080235-43.17665849-96.29080234-96.15373426a96.29080235 96.29080235 0 0 1 192.4445366 0c0 52.97707463-43.10812445 96.15373426-96.15373426 96.15373426zM767.73202035 217.70534455999996l-109.24380047 198.74969941 60.03611535 32.96503695 109.17526641-198.74969941-59.96758129-32.96503695zM380.17010575 249.43676187999995l-58.59689358 35.5008091 92.04167111 151.73511509 58.59689358-35.56934314-92.04167111-151.66658105z"  horiz-adv-x="1024" />

    
    <glyph glyph-name="-user" unicode="&#58944;" d="M818.23253333 260.72853333c26.50666667 0 33.19466667 6.7552 33.19466667 33.19466667 0 15.30666667-10.86293333 27.82933333-21.97333333 36.6048l-2.1088 2.10986667c-36.94293333 28.57066667-75.5008 55.7952-119.8272 72.7168 56.37866667 48.38933333 92.26666667 120.07466667 92.26666666 200.1984C799.78453333 751.2128 681.64053333 869.33333333 535.9808 869.33333333S272.224 751.2128 272.224 605.55306667c0-80.12373333 35.88693333-151.80906667 92.2432-200.1984C184.53546667 336.31786666999994 56.49386667 162.336 56.38186667-42.037333330000024v-0.0896c0.112-26.3936 11.6928-46.0768 38.04266666-46.0768 26.5728 0 28.45866667 19.07733333 28.52586667 45.44853333 0 211.59893333 127.16586667 411.48266667 413.0528 406.74666667 86.768-1.4368 188.43733333-34.81066667 250.42666667-86.45333334 16.83306667-14.02666667 20.53653333-14.20693333 28.0544-16.3616l3.74826666-0.448zM536.0032 415.25333333c-136.23253333 0.2688-201.72373333 97.71946667-201.72373333 190.29973334 0 92.53546667 74.82666667 200.8704 201.9936 200.8704 147.76853333 0 201.99253333-109.45706667 201.99253333-201.99253334 0-92.60266667-86.00426667-192.67946667-202.26133333-189.1776z m87.93493333-281.376c0-26.48533333 21.4784-39.1424 47.9616-39.1424h255.85813334c26.4832 0 47.96266667 12.65813333 47.96266666 39.14133334 0 26.528-21.47946667 36.60586667-47.96266666 36.60586666H671.89973333c-26.4832 0-47.9616-10.0768-47.9616-36.60586666z m303.81973334-156.00746666H671.89973333c-26.4832 0-47.9616-9.38133333-47.9616-35.86453334 0-26.528 21.4784-36.1568 47.9616-36.1568h255.85813334c26.4832 0 47.96266667 9.6512 47.96266666 36.1568 0 26.4832-21.47946667 35.86453333-47.96266666 35.86453334z m0 0"  horiz-adv-x="1024" />

    
    <glyph glyph-name="piliangmian" unicode="&#59034;" d="M428.811757037037 331.53843199999994H76.68197451851847c-16.976251259259257 0-30.714538666666666-13.737073777777777-30.714538666666666-30.71332503703703v-352.1309961481482c0-16.976251259259257 13.737073777777777-30.71332503703703 30.714538666666666-30.71332503703703h352.1309961481482c16.976251259259257 0 30.714538666666666 13.737073777777777 30.714538666666666 30.71332503703703V300.82389333333344c-0.0012136296296296298 16.976251259259257-13.738287407407407 30.714538666666666-30.715752296296294 30.714538666666666zM947.3204527407406 850.0459140740741H595.1894565925927c-16.976251259259257 0-30.71332503703703-13.737073777777777-30.71332503703703-30.714538666666666v-352.1309961481482c0-16.976251259259257 13.737073777777777-30.714538666666666 30.71332503703703-30.714538666666666h352.1309961481482c16.976251259259257 0 30.71332503703703 13.737073777777777 30.71332503703703 30.714538666666666V819.3313754074073c0 16.97746488888889-13.737073777777777 30.714538666666666-30.71332503703703 30.714538666666666zM947.3204527407406 331.53843199999994H595.1894565925927c-16.976251259259257 0-30.71332503703703-13.737073777777777-30.71332503703703-30.71332503703703v-352.1309961481482c0-16.976251259259257 13.737073777777777-30.71332503703703 30.71332503703703-30.71332503703703h352.1309961481482c16.976251259259257 0 30.71332503703703 13.737073777777777 30.71332503703703 30.71332503703703V300.82389333333344c0 16.976251259259257-13.737073777777777 30.714538666666666-30.71332503703703 30.714538666666666zM439.88005925925927 836.5187982222222L221.31264474074078 513.2127194074075l-124.41524148148147 108.72907851851852c-12.747965629629627 11.158110814814815-32.18424414814814 9.86802251851852-43.34114133333334-2.909070222222222s-9.86802251851852-32.18424414814814 2.909070222222222-43.34114133333334l150.60051437037038-131.61449244444444a30.77279288888889 30.77279288888889 0 0 1 20.21542874074074-7.588826074074074 29.321291851851853 29.321291851851853 0 0 1 3.9588598518518516 0.26942577777777776 30.508221629629634 30.508221629629634 0 0 1 21.475176296296297 13.257690074074073L490.74934518518523 802.1451662222223c9.507574518518517 14.036840296296297 5.819354074074074 33.14301155555555-8.247826962962963 42.62145896296296-14.007713185185183 9.508788148148147-33.14301155555555 5.819354074074074-42.62145896296296-8.247826962962963z"  horiz-adv-x="1024" />

    
    <glyph glyph-name="-mes" unicode="&#58883;" d="M889.06160075 308.58767986v119.15146583a362.98463482 362.98463482 0 0 1-283.04757546 347.90217078 100.54976068 100.54976068 0 0 1-94.01402529 100.54975921 100.54976068 100.54976068 0 0 1-94.01402529-100.54975921 362.48188502 362.48188502 0 0 1-281.53932907-347.39942248v-97.53326641c0-120.65971222-94.51677508-144.28890638-94.51677507-209.1435017S94.21574638 32.07583979000003 160.07583979 32.07583979000003h164.39885794c0-78.42881296 85.97004496-141.27241356 189.03354868-141.27241356s185.51430756 60.83260443 187.52530227 141.27241356H863.92416021c64.85459532 0 117.64321943 25.13744054 117.64321944 90.49478419s-85.46729666 85.97004496-93.51127698 188.02805059zM512-63.44643339000004c-77.92606465 0-141.77516188 41.22540118-141.77516188 92.00303058h283.04757544c0-50.27487962-63.34634892-92.00303057-141.77516187-92.00303058z m423.31449093 180.48682007c-3.01649281-30.66767637-43.23639738-40.21990457-68.37383792-40.21990458H157.05934699c-19.60720323-2.5137445-69.37933454 7.0384837-68.37383792 39.71715627v8.54672864c0 29.66217977 72.89857565 54.79961883 94.01402678 159.37137039V419.19241559a322.76473024 322.76473024 0 0 0 281.53932756 316.73174462v39.21440647A50.27487962 50.27487962 0 0 0 512 831.94918169a50.27487962 50.27487962 0 0 0 47.25838681-56.81061501V735.92416021a322.76473024 322.76473024 0 0 0 283.04757544-316.22899483v-130.71468877c0-75.41232014 93.51127698-137.75317098 94.0140253-160.37686701v-11.06047461zM512-118.74880050000002c-104.57175011 0-189.03354868 61.33535422-196.07203239 141.27241209H160.07583979c-79.43431104 0-125.18445145 35.69516538-125.18445144 98.03601621a118.64871753 118.64871753 0 0 0 38.7116567 75.41232014 183.00056306 183.00056306 0 0 1 55.8051169 133.73118154v98.03601621a369.52036874 369.52036874 0 0 0 281.53932905 351.92416021A105.57724821 105.57724821 0 0 0 512 886.7488005a105.57724821 105.57724821 0 0 0 100.54976068-105.5772482 369.01762043 369.01762043 0 0 0 283.04757399-351.92416021v-118.14596774a188.53080036 188.53080036 0 0 1 55.30236859-113.11848022 119.15146583 119.15146583 0 0 0 38.71165819-75.41232015c0-62.34085084-45.75014039-98.03601619-125.18445146-98.0360162H708.07203239C701.03354868-57.413447750000046 616.57175011-118.74880050000002 512-118.74880050000002z m-369.01762043 440.91069798a201.0995199 201.0995199 0 0 0-59.32435801-136.24492459 106.5827463 106.5827463 0 0 1-34.68966728-65.86009341c0-72.39582734 68.87658622-82.95355218 110.10198742-82.95355217h171.43734163v-5.02748752c0-73.90407375 83.45630049-134.23392986 181.49231667-134.23392986s179.48132196 60.32985613 181.49231667 134.23392986v7.03848225H863.92416021c41.22540118 0 110.10198743 10.55772482 110.10198742 82.95355215a106.5827463 106.5827463 0 0 1-35.19241558 65.86009342 201.0995199 201.0995199 0 0 0-58.82160971 121.66521033v118.14596775a354.94065301 354.94065301 0 0 1-277.01458985 340.86368707h-5.53023583v8.54673011A90.99753249 90.99753249 0 0 1 512 871.66633647a90.99753249 90.99753249 0 0 1-86.47279327-94.5167736v-8.0439818h-5.5302373a354.94065301 354.94065301 0 0 1-276.00909177-340.36093729zM512-70.98766538999996c-81.94805407 0-150.82464031 44.74464378-150.82464031 100.54976068v7.54123202h301.64928062v-5.02748752c0-58.31886142-68.37383644-103.06350372-150.82464031-103.06350518z m-133.73118156 94.01402676c5.53023729-44.74464378 63.34634892-78.93156127 133.73118156-78.93156272s129.20644235 34.68966726 133.73118156 78.93156272z m-229.25345326 46.25288871a89.48928609 89.48928609 0 0 0-55.30236711 18.60170663 37.20341178 37.20341178 0 0 0-13.07146931 29.15942997v8.04398033c0 14.07696593 11.56322291 25.64018885 26.14293716 40.72265287A220.70672315 220.70672315 0 0 1 175.15830384 283.45023932000004v133.73118155a331.31146033 331.31146033 0 0 0 281.53932756 324.77572493v33.18142088A60.32985613 60.32985613 0 0 0 512 839.4904137a60.32985613 60.32985613 0 0 0 54.79961883-64.35184702v-33.18142088a331.31146033 331.31146033 0 0 0 282.04207733-322.76473021v-130.71468729a201.0995199 201.0995199 0 0 1 65.35734514-117.64321944c17.09345874-19.10445492 28.15393334-31.67317446 28.65668164-42.23089926v-12.06597123c-3.01649281-32.17592276-41.72815098-47.25838681-75.91506993-47.25838829H149.51811498z m39.71715627 268.46785975V283.45023932000004a237.80018335 237.80018335 0 0 0-71.89307904-129.2064409c-12.06597121-12.56871953-21.61819796-22.12094773-22.12094772-30.16492804v-8.0439818a22.12094773 22.12094773 0 0 1 8.04398179-18.09895684 76.92056656 76.92056656 0 0 1 50.27487961-14.57971425h713.90329692c23.12644435 0 58.31886142 9.04947843 60.83260591 33.18142088v11.06047314a123.67620506 123.67620506 0 0 1-24.63469224 32.67867254A225.23146237 225.23146237 0 0 0 834.76473024 283.45023932000004v135.74217627a316.73174462 316.73174462 0 0 1-276.51184007 308.68776429h-6.53573539v47.2583868a45.24739209 45.24739209 0 0 1-39.71715478 50.27488107 45.24739209 45.24739209 0 0 1-39.71715478-50.27488107v-46.25288872h-6.53573539a316.73174462 316.73174462 0 0 1-276.51184007-309.69326237z"  horiz-adv-x="1024" />

    
    <glyph glyph-name="zhuce" unicode="&#58881;" d="M603.81866667 262.62186667000003c-23.48373333-24.09813333-45.6704-47.104-68.26666667-69.76853334-18.97813333-19.0464-39.38986667-36.79573333-57.07093333-56.9344-10.10346667-11.60533333-18.90986667-25.87306667-23.552-40.48213333a4093.26933333 4093.26933333 0 0 1-46.55786667-157.76426667c-4.23253333-15.29173333-4.3008-31.67573333-6.00746667-45.94346666-23.7568 0-48.67413333-1.16053333-73.59146666 0.2048-66.69653333 3.4816-132.84693333 10.51306667-197.15413334 29.9008-27.648 8.32853333-54.13546667 19.2512-77.27786666 37.00053333-24.30293333 18.70506667-34.67946667 43.14453333-37.0688 74.1376-4.02773333 52.77013333 21.02613333 89.36106667 58.29973333 120.90026667 45.39733333 38.43413333 97.14346667 66.42346667 151.1424 90.45333333 21.504 9.6256 43.48586667 18.2272 65.39946667 26.624 40.48213333 15.5648 52.70186667 69.08586667 24.1664 101.92213333C243.78026667 456.2944 206.98453333 553.1648 214.35733333 664.1664000000001c5.05173333 75.43466667 35.70346667 138.58133333 102.1952 180.08746667A213.67466667 213.67466667 0 0 0 403.456 874.7008c14.1312 1.8432 28.60373333 4.9152 42.5984 3.82293333 79.53066667-6.21226667 146.29546667-35.84 187.73333333-108.1344 27.78453333-48.60586667 35.90826667-101.7856 31.47093334-156.8768-7.64586667-93.04746667-43.4176-174.21653333-105.54026667-243.84853333-17.6128-19.79733333-16.31573333-69.49546667 2.38933333-87.79093333 4.77866667-4.7104 11.40053333-7.91893333 17.68106667-10.71786667 7.5776-3.4816 15.83786667-5.66613333 24.02986667-8.53333333zM761.30986667 307.88266667000005l142.60906666-142.47253334-36.11306666-35.6352c-62.32746667-61.57653333-124.5184-123.42613333-187.11893334-184.79786666a48.67413333 48.67413333 0 0 0-19.31946666-11.60533334c-49.28853333-15.01866667-98.7136-29.35466667-148.20693334-43.75893333-6.89493333-1.97973333-12.83413333-7.64586667-21.43573333-1.4336-9.6256 6.89493333-13.24373333 14.9504-10.17173333 25.46346667 15.49653333 53.79413333 31.26613333 107.45173333 47.24053333 161.04106666a27.648 27.648 0 0 0 7.50933333 10.6496c73.65973333 73.18186667 147.456 146.36373333 221.25226667 219.40906667 1.50186667 1.50186667 3.34506667 2.73066667 3.75466667 3.14026667z m-115.3024-337.5104c-15.63306667 8.46506667-15.5648 20.48-15.9744 32.29013333l-0.68266667 15.49653333c-0.6144 17.95413333-0.68266667 16.9984-18.2272 19.11466667-16.04266667 1.97973333-34.26986667-3.34506667-47.78666667 12.83413333-8.32853333-28.19413333-16.45226667-54.95466667-24.09813333-81.78346666-2.048-7.23626667 14.40426667-24.84906667 21.57226667-22.80106667 27.17013333 7.5776 54.20373333 15.7696 85.1968 24.84906667zM839.68 383.24906667000005c8.53333333 8.192 16.65706667 17.2032 26.14613333 24.576a44.6464 44.6464 0 0 0 58.02666667-1.8432c26.07786667-24.23466667 51.47306667-49.49333333 75.63946667-75.63946667 15.90613333-17.27146667 14.40426667-43.96373333-1.16053334-61.6448-7.03146667-7.91893333-14.7456-15.29173333-21.2992-21.98186667l-137.35253333 136.53333334zM957.37173333 219.20426667000004l-29.696-27.648-142.336 142.60906666 29.35466667 27.71626667 142.67733333-142.67733333z"  horiz-adv-x="1024" />

    
    <glyph glyph-name="xingbie" unicode="&#59026;" d="M440.888889 243.484444h-113.777778v91.875556a186.88 186.88 0 0 1 170.666667 192.284444c-3.697778 119.182222-89.031111 227.555556-206.791111 224.142223a215.04 215.04 0 0 1-219.875556-209.635556 233.813333 233.813333 0 0 1 199.111111-213.333333v-85.333334h-113.777778a51.768889 51.768889 0 0 1-38.4-17.92 34.417778 34.417778 0 0 1 0-34.133333c5.973333-10.524444 26.453333-4.835556 38.4-4.835555h113.777778v-142.222223c0-19.911111 8.817778-28.444444 28.444445-28.444444s28.444444 8.533333 28.444444 28.444444v142.222223h113.777778c11.946667 0 16.213333-5.688889 22.186667 4.835555a34.417778 34.417778 0 0 1 0 34.133333 33.564444 33.564444 0 0 1-28.444445 17.066667z m312.888889 199.111112v199.111111l81.92-72.817778a36.693333 36.693333 0 0 1 50.631111 0 32.995556 32.995556 0 0 1 0 48.071111l-104.391111 101.831111a62.293333 62.293333 0 0 1-40.675556 23.324445 67.982222 67.982222 0 0 1-56.888889-21.048889c-28.444444-26.168889-106.097778-103.253333-106.097777-103.253334a33.28 33.28 0 0 1-9.955556-23.608889 34.986667 34.986667 0 0 1 35.84-34.133333 36.408889 36.408889 0 0 1 24.462222 10.24l68.266667 71.395556v-205.368889a212.764444 212.764444 0 0 1-184.888889-207.075556 217.6 217.6 0 0 1 67.413333-151.324444 213.048889 213.048889 0 0 1 153.6-58.595556 215.04 215.04 0 0 1 219.875556 209.92 212.764444 212.764444 0 0 1-184.888889 207.075556z"  horiz-adv-x="1024" />

    
    <glyph glyph-name="quxiao1" unicode="&#59059;" d="M586.8 810.392v-139.674s-280.884-3.07-368.372-165.767-21.489-326.93-21.489-326.93 66-191.861 279.349-224.093c0 0-222.558 56.79-179.581 303.907 0 0 7.674 168.837 290.093 165.767V256.3l282.418 275.766L586.8 810.392z"  horiz-adv-x="1024" />

    
    <glyph glyph-name="xiugai" unicode="&#59198;" d="M782.464-107.87199999999996H166.848a102.976 102.976 0 0 0-102.592 103.03999999V682.2719999999999c0 56.832 46.08 103.04 102.592 103.04h478.848a34.24 34.24 0 1 0 0-68.672H166.848a34.304 34.304 0 0 1-34.176-34.30400001v-687.03999999c0-18.944 15.36-34.368 34.176-34.368h615.68c18.816 0 34.112 15.36 34.112 34.368V544.8a34.24 34.24 0 1 0 68.416 0v-549.568c0-56.832-46.08-103.04-102.592-103.04zM581.504 441.75999999a34.432 34.432 0 0 0-24.128 58.62400001L897.216 841.76a34.048 34.048 0 0 0 48.384 0 34.432 34.432 0 0 0 0-48.512l-339.84-341.44a33.92 33.92 0 0 0-24.256-10.04800001z m-141.056 0H235.264a34.304 34.304 0 0 0 0 68.67200001h205.184a34.304 34.304 0 0 0 0-68.67200001z m205.248-206.07999999H235.264a34.24 34.24 0 0 0-34.176 34.304c0 19.008 15.36 34.368 34.176 34.368h410.368c18.88 0 34.176-15.36 34.176-34.368a34.176 34.176 0 0 0-34.112-34.304z"  horiz-adv-x="1024" />

    
    <glyph glyph-name="zhengfangxing" unicode="&#58884;" d="M25.57 384l486.4 486.4L998.37 384l-486.4-486.4z"  horiz-adv-x="1024" />

    
    <glyph glyph-name="shenqing2" unicode="&#59012;" d="M346.112-36.864H166.912c-23.552 0-43.008 19.456-43.008 43.008V761.856c0 23.552 19.456 43.008 43.008 43.008h608.256c21.504 0 43.008-16.384 43.008-43.008v-236.544c0-8.192 7.168-15.36 15.36-15.36h44.032c8.192 0 15.36 7.168 15.36 15.36V783.36c0 50.176-40.96 92.16-92.16 92.16H141.312c-50.176 0-92.16-40.96-92.16-91.136V-15.36c0-50.176 40.96-91.136 92.16-91.136h205.824c8.192 0 15.36 7.168 15.36 15.36v39.936c-1.024 7.168-8.192 14.336-16.384 14.336zM596.992 427.008v45.056c0 10.24-8.192 17.408-17.408 17.408H253.952c-10.24 0-17.408-8.192-17.408-17.408v-45.056c0-10.24 8.192-17.408 17.408-17.408h324.608c10.24 0 18.432 8.192 18.432 17.408zM253.952 313.344c-10.24 0-17.408-8.192-17.408-17.408V250.88c0-10.24 8.192-17.408 17.408-17.408h205.824c10.24 0 17.408 8.192 17.408 17.408v45.056c0 10.24-8.192 17.408-17.408 17.408H253.952zM684.032 605.184V650.24c0 10.24-8.192 17.408-17.408 17.408H253.952c-10.24 0-17.408-8.192-17.408-17.408v-45.056c0-10.24 8.192-17.408 17.408-17.408H665.6c10.24-1.024 18.432 7.168 18.432 17.408zM964.608 317.44L817.152 463.872c-6.144 3.072-13.312 6.144-19.456 6.144-6.144 0-13.312 0-19.456-6.144L410.624 94.208c-3.072-6.144-6.144-13.312-6.144-19.456v-147.456c0-13.312 10.24-26.624 26.624-26.624h147.456c6.144 0 13.312 0 19.456 6.144l219.136 222.208c10.24 10.24 10.24 29.696 0 38.912-10.24 10.24-29.696 10.24-38.912 0L568.32-38.912c-2.048-2.048-5.12-4.096-9.216-4.096h-90.112c-7.168 0-12.288 6.144-12.288 12.288v90.112c0 3.072 1.024 6.144 4.096 9.216l327.68 327.68c5.12 5.12 13.312 5.12 18.432 0l91.136-91.136c5.12-5.12 5.12-12.288 1.024-17.408L885.76 271.36c-5.12-6.144-13.312-6.144-18.432-1.024l-46.08 46.08c-10.24 10.24-29.696 10.24-38.912 0-10.24-10.24-10.24-29.696 0-38.912l71.68-74.752c6.144-3.072 13.312-6.144 19.456-6.144s13.312 0 19.456 6.144l71.68 74.752c3.072 6.144 6.144 13.312 6.144 19.456 0 7.168 0 13.312-6.144 20.48z"  horiz-adv-x="1024" />

    
    <glyph glyph-name="niandubaogao" unicode="&#59587;" d="M920.50773333-119.17084445H240.51105185c-44.54020741 0-80.70637037 36.16616297-80.70637037 80.70637037V666.53297778c0 44.54020741 36.16616297 80.70637037 80.70637037 80.70637037h679.99668148c44.54020741 0 80.70637037-36.16616297 80.70637037-80.70637037v-704.99745186c0-44.54020741-36.16616297-80.70637037-80.70637037-80.70637037zM240.51105185 687.7714963c-11.77220741 0-21.23851852-9.58767408-21.23851852-21.23851852v-704.99745186c0-11.77220741 9.58767408-21.23851852 21.23851852-21.23851851h679.99668148c11.77220741 0 21.23851852 9.58767408 21.23851852 21.23851851V666.53297778c0 11.77220741-9.58767408 21.23851852-21.23851852 21.23851852H240.51105185zM50.9421037 70.51946667000004c-16.384 0-29.73392592 13.34992592-29.73392592 29.73392592v705.11881482c0 44.41884445 36.16616297 80.58500741 80.5850074 80.58500741h646.13641482c16.384 0 29.73392592-13.34992592 29.73392592-29.73392593s-13.22856297-29.73392592-29.73392592-29.73392592H101.91454815c-11.65084445 0-21.23851852-9.46631111-21.23851852-21.23851852V100.01066666999998c0-16.26263703-13.22856297-29.4912-29.73392593-29.4912zM790.04254815 449.65736297H370.97623703c-16.384 0-29.73392592 13.34992592-29.73392592 29.73392592s13.22856297 29.73392592 29.73392592 29.73392593h419.18767408c16.384 0 29.73392592-13.34992592 29.73392592-29.73392593s-13.34992592-29.73392592-29.85528888-29.73392592zM790.04254815 284.84645924999995H370.97623703c-16.384 0-29.73392592 13.34992592-29.73392592 29.73392593s13.22856297 29.73392592 29.73392592 29.73392593h419.18767408c16.384 0 29.73392592-13.34992592 29.73392592-29.73392593-0.12136297-16.50536297-13.34992592-29.73392592-29.85528888-29.73392593zM589.79365925 119.55010370000002H370.97623703c-16.384 0-29.73392592 13.34992592-29.73392592 29.73392593s13.22856297 29.73392592 29.73392592 29.73392592h218.81742222c16.384 0 29.73392592-13.34992592 29.73392593-29.73392592s-13.34992592-29.73392592-29.73392593-29.73392593zM856.79217778-13.220977779999998h-42.35567408c-4.73315555 0-8.49540741 3.76225185-8.4954074 8.49540741s3.76225185 8.49540741 8.4954074 8.4954074h42.35567408c14.0781037 0 25.48622222 11.40811852 25.48622222 25.48622222v108.1344c0 4.73315555 3.76225185 8.49540741 8.49540741 8.49540742s8.49540741-3.76225185 8.49540741-8.49540742v-108.1344c0-23.42305185-19.05398518-42.47703703-42.47703704-42.47703703zM773.65854815-5.211022220000018m-12.74311112 0a12.74311111 12.74311111 0 1 1 25.48622222 0 12.74311111 12.74311111 0 1 1-25.48622222 0Z"  horiz-adv-x="1024" />

    
    <glyph glyph-name="shenhe" unicode="&#59103;" d="M928.08533333-44.48711111H96.71111111c-11.264 0-20.25244445-12.06044445-20.25244444-27.07911111v-27.07911111c0-15.01866667 8.98844445-26.96533333 20.25244444-26.96533334h829.09866667c11.264 0 20.25244445 12.06044445 20.25244444 26.96533334v27.07911111c0 15.01866667-8.98844445 27.07911111-17.97688889 27.07911111z m19.34222222 90.22577778v62.00888888c0 34.70222222-7.73688889 42.09777778-44.032 42.09777778H773.46133333c-10.12622222 1.13777778-20.82133333 7.50933333-29.92355555 14.79111112-0.22755555 0.11377778-0.56888889 0.34133333-0.79644445 0.4551111-3.86844445 2.73066667-8.87466667 7.50933333-13.88088888 12.97066667-2.50311111 2.61688889-4.89244445 5.23377778-7.168 7.96444445v0.11377778c-4.096 4.66488889-7.96444445 9.32977778-11.8328889 14.10844444-77.36888889 90.90844445-27.19288889 153.82755555 27.648 239.72977778 10.35377778 12.40177778 20.70755555 24.80355555 28.55822223 39.70844444 23.32444445 39.70844445 36.29511111 84.30933333 36.29511111 133.91644444 0 153.71377778-129.70666667 280.12088889-293.09155556 280.1208889C348.38755555 893.61066667 216.17777778 769.59288889 216.17777778 613.4897777799999c0-64.512 23.32444445-123.904 62.23644444-171.008 62.23644445-94.208 163.38488889-171.008 0-292.52266667H122.76622222c-28.55822222 0-44.032-14.90488889-44.032-42.09777778v-64.39822222c0-24.80355555 18.20444445-19.79733333 46.64888889-19.79733333h798.72c25.94133333 2.27555555 23.32444445-5.12 23.32444444 22.07288889z"  horiz-adv-x="1024" />

    
    <glyph glyph-name="shenqing3" unicode="&#59045;" d="M773.05048-115.725908v169.297823h133.956903V329.527367H569.893092v-408.854243H722.261133v-43.594189h-195.96223V373.121557H950.813195V20.347218l-2.539468-11.639226h-2.539467a219.875548 219.875548 0 0 0-140.728816-133.956902h-21.162227l-9.099758-2.539468z m46.133657 43.59419a172.895402 172.895402 0 0 1 80.628088 80.628088h-80.628088z m-205.696855 205.696855v43.594189h249.291045v-43.594189z m0 80.628088v43.805812h249.291045v-43.59419z m0 0M98.821899-113.821307A31.743342 31.743342 0 0 0 66.232068-81.231476v89.727846a430.439716 430.439716 0 0 0 275.108963 402.08233l21.162228 7.195158-15.660049 13.755448a253.946735 253.946735 0 0 0-99.462471 200.61792 256.486202 256.486202 0 1 0 512.760782 0 267.278938 267.278938 0 0 0-55.445037-159.351576h-95.230025a190.460051 190.460051 0 0 1-105.81114 350.869739 190.460051 190.460051 0 0 1-90.362713-359.757875v-96.923003A366.529787 366.529787 0 0 1 131.200108 8.49637v-57.772882h276.801941v-63.486684z m0 0"  horiz-adv-x="1024" />

    
    <glyph glyph-name="square" unicode="&#59190;" d="M848 832H176c-61.6 0-112-50.4-112-112v-672c0-61.6 50.4-112 112-112h672c61.6 0 112 50.4 112 112V720c0 61.6-50.4 112-112 112z"  horiz-adv-x="1024" />

    
    <glyph glyph-name="square-o" unicode="&#59191;" d="M792 832H232c-92.6 0-168-75.4-168-168v-560c0-92.6 75.4-168 168-168h560c92.6 0 168 75.4 168 168V664c0 92.6-75.4 168-168 168z m56-728c0-30.9-25.1-56-56-56H232c-30.9 0-56 25.1-56 56V664c0 30.9 25.1 56 56 56h560c30.9 0 56-25.1 56-56v-560z"  horiz-adv-x="1024" />

    
    <glyph glyph-name="quxiao" unicode="&#58904;" d="M478.66311111 682.21155555V845.824c0 42.55288889-51.54133333 63.94311111-81.57866666 33.792L89.088 571.73333333c-18.65955555-18.65955555-18.65955555-48.92444445 0-67.584L396.97066667 196.26666666999995c30.15111111-30.15111111 81.57866667-8.76088889 81.57866666 33.792v176.35555555c109.34044445 0.34133333 308.90666667 12.17422222 308.90666667-259.072 0-134.37155555-105.58577778-246.67022222-245.76-272.61155555 225.39377778 27.76177778 370.91555555 268.51555555 370.91555555 411.76177778 0.11377778 332.91377778-352.02844445 394.01244445-433.94844444 395.7191111z"  horiz-adv-x="1024" />

    
    <glyph glyph-name="sanjiao-copy" unicode="&#58912;" d="M999.5876218 197.78571068999997l-387.62360094 448.75582673c-44.42778253 51.421511-155.522397 51.421511-199.95018051 0L24.39023938 197.78571068999997C-20.03754315 146.31388439 35.50976409 82.01183848000005 124.41564444 82.01183848000005l775.1968876 1e-8c88.85556604 0 144.40287327 64.30204592 99.97508976 115.7738722z"  horiz-adv-x="1024" />

    
    <glyph glyph-name="wenhuatiyu" unicode="&#59060;" d="M991.744 668.672h-79.872V691.2l-27.136 10.752c-5.632 2.048-134.656 52.224-247.296 52.224-52.736 0-95.232-10.752-126.464-32.256-31.232 21.504-73.728 32.256-126.464 32.256-113.152 0-242.176-50.176-247.296-52.224L110.592 691.2v-22.528H32.256c-17.408 0-32.256-14.336-32.256-32.256V46.08000000000004c0-17.408 14.336-32.256 32.256-32.256h959.488c17.408 0 32.256 14.336 32.256 32.256V636.4159999999999c0 17.92-14.336 32.256-32.256 32.256z m-122.368-6.656v-468.48c-66.048 22.528-242.176 74.24-336.896 18.432V684.032c26.624 19.968 64.512 27.136 104.96 27.136 105.984 0.512 231.936-49.152 231.936-49.152z m-48.64-497.664h-281.6c54.784 52.224 190.976 27.136 281.6 0zM384.512 711.6800000000001c40.448 0 78.336-7.168 104.96-27.136v-471.552c-94.72 55.296-270.848 4.096-336.896-18.432V662.016c0.512 0 125.952 49.664 231.936 49.664z m98.304-547.328h-281.6c90.624 27.136 226.816 52.224 281.6 0z m476.672-86.016H64.512V604.672h46.08v-482.816h801.792V604.672h47.616l-0.512-526.336z"  horiz-adv-x="1024" />

    
    <glyph glyph-name="denghao" unicode="&#58909;" d="M716.69248 481.41312v-0.256a38.43584 38.43584 0 0 0 0-76.71296v-0.05632h-1.09568c-0.45568 0-0.90112-0.07168-1.3568-0.07168s-0.90112 0.0512-1.3568 0.07168h-422.2464c-0.45568 0-0.90112-0.07168-1.3568-0.07168s-0.90112 0.0512-1.3568 0.07168h-0.8192v0.04096a38.43584 38.43584 0 0 0 0 76.73856v0.24576h429.568z m-429.568-205.04576v0.24576h429.568v-0.256a38.43584 38.43584 0 0 0 0-76.71296v-0.05632h-1.1008c-0.45568 0-0.896-0.06656-1.35168-0.06656s-0.896 0.0512-1.35168 0.06656H290.63168c-0.45056 0-0.896-0.06656-1.35168-0.06656s-0.896 0.0512-1.35168 0.06656h-0.82432v0.04096a38.43072 38.43072 0 0 0 0 76.73856z"  horiz-adv-x="1024" />

    
    <glyph glyph-name="bukao" unicode="&#59041;" d="M272 566.6784v-365.3568c0-29.4128 28.6032-54.5656 59.3104-54.5656h287.0664c17.5776 0 30.5512 10.116 39.8184 19.4912 10.4424 10.5688 16.7416 24.6696 17.212 44.4728l-0.0952 127.456-87.5624-87.6368c-10.0224-10.4608-17.7184-12.2568-41.1392-17.7816l-61.624-14.332c-13.8656-3.224-26.0864-1.7816-30.756 1.3168-13.9248 9.24-6.9664 26.3728-3.704 42.6696 6.3696 31.8088 9.6368 50.3192 12.5552 62.9792 5.3632 23.2664 11.756 26.792 41.7944 56.8296l170.488 170.6296-0.0488 6.7104c0 37.6056-26.3216 61.684-59.312 61.684H331.3104c-30.7072 0-59.3104-25.1552-59.3104-54.5664z m103.8192-145.668c-5.2528-5.2504-13.7688-5.2504-19.02 0s-5.2512 13.768 0 19.02l56.9384 56.9384c5.2504 5.2504 13.7672 5.2504 19.0192 0l38.0432-38.044 92.9808 92.9808c5.2504 5.2512 13.7672 5.2512 19.0184 0 5.2528-5.252 5.2528-13.7672 0-19.02L480.3096 430.396c-5.2504-5.2512-13.7672-5.2512-19.02 0l-38.0416 38.0424-47.4288-47.428zM471.2856 253.516c0-10.9256 5.7024-12.7872 14.46-10.7736l64.5088 14.8384c13.6496 2.8088 11.8832 2.2728 20.1448 10.6976l174.208 174.3544c16.3568 16.372 1.8816 48.1672-8.0416 59.6304-12.9968 18.9784-48.7144 27.848-61.2016 15.3912L501.5312 344.2632c-17.4608-17.34-13.544-11.8288-19.8296-39.4816l-10.416-51.2656z"  horiz-adv-x="1024" />

    
    <glyph glyph-name="elementary-data" unicode="&#59226;" d="M955.05066667 667.98933333C947.95093333 777.19893333 756.18986667 861.86666667 512.0512 861.86666667 267.8784 861.86666667 76.11733333 777.19893333 69.00053333 667.98933333H68.26666667V106.32533333000003C68.26666667-5.853866670000002 263.15093333-93.86666666999997 512.03413333-93.86666666999997 760.91733333-93.86666666999997 955.73333333-5.853866670000002 955.73333333 106.3424V667.98933333h-0.68266666zM511.40266667 811.52c230.57066667 0 386.57706667-75.63946667 392.53333333-153.6512-5.888-78.01173333-161.96266667-153.56586667-392.53333333-153.56586667-230.656 0-386.6624 75.55413333-392.53333334 153.4976 5.87093333 78.08 161.87733333 153.63413333 392.53333334 153.63413334v0.06826666z m0-854.6304c-234.83733333 0-392.53333333 76.42453333-392.53333334 153.92426667v153.27573333c79.85493333-60.70613333 223.96586667-100.608 392.53333334-100.608 168.48213333 0 312.66133333 39.90186667 392.53333333 100.608v-153.27573333c0-77.48266667-157.7984-153.92426667-392.53333333-153.92426667z m392.53333333 433.7152v-10.87146667c0-74.22293333-157.7984-147.49013333-392.53333333-147.49013333-234.83733333 0-392.53333333 73.2672-392.53333334 147.49013333v159.70986667c79.85493333-58.12906667 223.96586667-96.44373333 392.53333334-96.44373333 168.48213333 0 312.66133333 38.2464 392.53333333 96.44373333v-148.82133333z"  horiz-adv-x="1024" />

    
    <glyph glyph-name="huifu" unicode="&#59044;" d="M930.133333 392.533333C896 273.066667 597.333333 179.2 392.533333 452.266667c93.866667-85.333333 384-119.466667 452.266667 25.6A745.813333 745.813333 0 0 1 733.866667 537.6L1024 563.2l-17.066667-307.2S964.266667 349.866667 938.666667 392.533333z m-682.666666-341.333333C238.933333 51.2 230.4 59.733333 230.4 68.266667V230.4C230.4 238.933333 238.933333 247.466667 247.466667 247.466667h34.133333c8.533333 0 17.066667-8.533333 17.066667-17.066667v-162.133333C298.666667 59.733333 290.133333 51.2 281.6 51.2H247.466667z m153.6 0C392.533333 51.2 384 59.733333 384 68.266667V230.4C384 238.933333 392.533333 247.466667 401.066667 247.466667h34.133333c8.533333 0 17.066667-8.533333 17.066667-17.066667v-162.133333C452.266667 59.733333 443.733333 51.2 435.2 51.2H401.066667z m153.6 0C546.133333 51.2 537.6 59.733333 537.6 68.266667V230.4C537.6 238.933333 546.133333 247.466667 554.666667 247.466667h34.133333C597.333333 247.466667 605.866667 238.933333 605.866667 230.4v-162.133333C605.866667 59.733333 597.333333 51.2 588.8 51.2H554.666667zM836.266667 622.933333H162.133333v-614.4c0-34.133333 25.6-68.266667 59.733334-68.266666h435.2c34.133333 0 59.733333 34.133333 59.733333 68.266666V119.466667C716.8 136.533333 733.866667 153.6 750.933333 153.6S785.066667 136.533333 785.066667 119.466667V-59.733333c0-34.133333-25.6-68.266667-59.733334-68.266667H153.6c-34.133333 0-59.733333 34.133333-59.733333 68.266667v682.666666H34.133333C25.6 622.933333 8.533333 631.466667 8.533333 648.533333V674.133333C8.533333 691.2 17.066667 699.733333 34.133333 699.733333h153.6V844.8c0 25.6 17.066667 51.2 42.666667 51.2h384c25.6 0 42.666667-25.6 42.666667-51.2v-145.066667H597.333333h238.933334c8.533333 0 25.6-8.533333 25.6-25.6v-25.6C861.866667 631.466667 853.333333 622.933333 836.266667 622.933333zM546.133333 819.2H298.666667C273.066667 819.2 256 793.6 256 768v-68.266667h332.8V768C588.8 793.6 571.733333 819.2 546.133333 819.2z"  horiz-adv-x="1032" />

    
    <glyph glyph-name="tijiao1" unicode="&#59046;" d="M608 576H224c-17.6 0-32 14.4-32 32s14.4 32 32 32h384c17.6 0 32-14.4 32-32v-0.1c0-17.5-14.4-31.9-32-31.9zM543.5 384h-319c-17.6 0-32 14.4-32 32s14.4 32 32 32h319c17.6 0 32-14.4 32-32s-14.4-32-32-32zM480 192H224c-17.6 0-32 14.4-32 32s14.4 32 32 32h256c17.6 0 32-14.4 32-32s-14.4-32-32-32zM960 256L800 448 640 256h96v-320h128V256zM772.8 832H123.2C90.5 832 64 805.5 64 772.8v-777.6c0-32.7 26.5-59.2 59.2-59.2H640v64H160.4c-17.9 0-32.4 14.5-32.4 32.4V735.6c0 17.9 14.5 32.4 32.4 32.4h575.2c17.9 0 32.4-14.5 32.4-32.4V512h64V772.8c0 32.7-26.5 59.2-59.2 59.2z"  horiz-adv-x="1024" />

    
    <glyph glyph-name="renyuan1" unicode="&#59062;" d="M975.36-79.36c-2.56 0-2.56 0-2.56 2.56v10.24c-17.92 163.84-125.44 304.64-279.04 368.64 89.6 58.88 143.36 158.72 143.36 268.8C837.12 750.08 691.2 896 512 896c-89.6 0-166.4-30.72-230.4-97.28-61.44-61.44-94.72-140.8-94.72-230.4 0-110.08 56.32-209.92 143.36-268.8-151.04-61.44-256-199.68-279.04-360.96-2.56-2.56-2.56-5.12-2.56-7.68v-12.8c0-23.04 17.92-46.08 46.08-46.08 25.6 0 46.08 23.04 46.08 46.08v2.56c25.6 176.64 166.4 314.88 348.16 325.12 12.8-2.56 28.16-2.56 40.96 0 89.6-5.12 168.96-38.4 232.96-99.84 66.56-61.44 104.96-135.68 115.2-225.28h2.56v-2.56c0-23.04 17.92-46.08 46.08-46.08 25.6 0 48.64 23.04 48.64 48.64zM512 337.92c-125.44 0-232.96 104.96-232.96 232.96 0 66.56 23.04 120.32 69.12 163.84C394.24 780.8 448 803.84 512 803.84s120.32-23.04 163.84-69.12c46.08-46.08 69.12-99.84 69.12-163.84 0-128-104.96-232.96-232.96-232.96z"  horiz-adv-x="1024" />

    
    <glyph glyph-name="xingzhuang-sanjiaoxing" unicode="&#60313;" d="M986.04373333-52.90666667000005a2.43939555 2.43939555 0 0 0-0.72817778 0H38.68444445a36.44529778 36.44529778 0 0 0-31.34805334 54.94101334l473.31555556 800.99555555c13.07079111 22.13660445 49.55249778 22.13660445 62.69610666 0l470.07516445-795.53422222A36.33607111 36.33607111 0 0 0 986.04373333-52.90666667000005zM102.47281778 19.91111110999998h819.01795555L512 712.91790222 102.47281778 19.91111110999998z"  horiz-adv-x="1024" />

    
    <glyph glyph-name="shenqing1" unicode="&#58890;" d="M503.328125 5.1328125v-101.1328125h101.25l292.8515625 295.8984375-101.1328125 101.25-292.96875-296.015625zM716.2578125 864H182.234375C104.65625 864 41.609375 801.0703125 41.609375 723.375v-678.75c0-77.578125 63.046875-140.625 140.625-140.625h194.296875V29.9765625l480.46875 491.484375V723.375C856.8828125 801.0703125 793.953125 864 716.2578125 864zM465.828125 249.5859375H291.3359375c-31.9921875 0-57.890625 25.8984375-57.890625 57.890625 0 31.9921875 25.8984375 57.890625 57.890625 57.890625H465.828125c31.9921875 0 57.890625-25.8984375 57.890625-57.890625 0-31.9921875-25.8984375-57.890625-57.890625-57.890625z m117.3046875 232.734375h-291.796875c-31.9921875 0-57.890625 25.8984375-57.890625 57.890625 0 31.9921875 25.8984375 57.890625 57.890625 57.890625h291.796875c31.9921875 0 57.890625-25.8984375 57.890625-57.890625 0-31.9921875-25.8984375-57.890625-57.890625-57.890625z m330.5859375-106.875c-4.921875 5.15625-11.6015625 7.8515625-18.75 7.8515625-7.03125 0-13.828125-2.9296875-18.75-7.8515625l-48.046875-48.046875 101.1328125-101.1328125 45.1171875 50.859375c5.15625 4.921875 7.8515625 11.71875 7.8515625 18.75s-2.9296875 13.828125-7.8515625 18.75l-60.703125 60.8203125z m0 0"  horiz-adv-x="1024" />

    
    <glyph glyph-name="luru" unicode="&#59035;" d="M522.971429 757.028571l263.314285-219.428571c14.628571-14.628571 36.571429-7.314286 51.2 0l36.571429 51.2c43.885714 51.2 36.571429 131.657143-14.628572 168.228571L727.771429 866.742857C705.828571 888.685714 683.885714 896 654.628571 896c-36.571429 0-73.142857-14.628571-95.085714-43.885714l-43.885714-51.2c-7.314286-14.628571-7.314286-36.571429 7.314286-43.885715z m387.657142-768H303.542857l87.771429 21.942858c7.314286 0 14.628571 7.314286 14.628571 14.628571L757.028571 457.142857c14.628571 14.628571 7.314286 36.571429-7.314285 43.885714l-263.314286 219.428572c-14.628571 7.314286-29.257143 0-43.885714-14.628572L91.428571 281.6c-7.314286-7.314286-7.314286-14.628571-7.314285-21.942857L69.485714-25.6v-14.628571c0-21.942857 14.628571-36.571429 36.571429-36.571429h811.885714c21.942857 0 36.571429 14.628571 36.571429 36.571429-7.314286 14.628571-21.942857 29.257143-43.885715 29.257142z"  horiz-adv-x="1024" />

    
    <glyph glyph-name="shenhe1" unicode="&#59288;" d="M31.24645905 416.52156306V738.9092316900001C31.24645905 856.97664544 96.99657568 864.75354095 159.2117398 864.75354095h512.56811351c98.9786702 0 129.37926176-33.93554407 129.37926176-127.96528075v-64.33613563c0-50.90331611-64.33613563-44.54040159-64.33613562 0v64.33613563c0 47.36836359-15.55379103 64.33613563-65.04312614 64.33613563H159.2117398c-53.02428761 0-64.33613563-7.06990501-64.33613563-64.33613563v-641.24038477c0-35.34952507 19.08874354-64.33613563 64.33613563-64.33613563h127.96528075c38.88447758 0 42.41943008-64.33613563 0-64.33613563s-74.23400265-0.7069905-152.7099483 0c-45.9543826 0-84.83886017 27.57262956-98.27167968 69.99205965-3.5349525 12.01883853-5.65592402 24.74466755-5.65592402 37.47049657 0.7069905 135.74217627 0.7069905 207.14821691 0.7069905 342.18340267M671.77985331-96.75354095c-176.74762534 0-319.55970663 143.51907178-319.55970662 320.26669712 0 176.74762534 143.51907178 320.26669714 320.97368764 320.26669714 176.74762534 0 320.26669714-144.22606228 320.26669712-320.97368764-0.7069905-176.74762534-144.22606228-319.55970663-321.68067814-319.55970662m0.70699052 576.90424914c-140.69110977 0-255.93056151-114.53246123-256.63755202-255.22357101 0-140.69110977 113.82547073-256.63755201 254.51658051-256.63755201 141.39810029-0.7069905 257.34454252 113.82547073 257.34454251 254.5165805 0.7069905 141.39810029-113.11848021 256.63755201-255.223571 257.34454252m-64.33613564 193.00840688c50.90331611 0 43.83341109-65.04312613 0-65.04312612H223.54787543c-48.07535409 0-45.9543826 65.04312613 0 65.04312612h384.60283276zM287.88401105 480.8576987c50.90331611 0 43.83341109-65.04312613 0-65.04312613h-64.33613562c-48.07535409 0-45.9543826 65.04312613 0 65.04312613h64.33613562zM829.43873514 342.99455092000005c-14.84680053 14.84680053-38.17748707 14.84680053-52.31729711 0l-160.48684382-160.48684382-48.78234461 48.7823446c-14.84680053 14.84680053-38.17748707 14.84680053-52.3172971 0-14.84680053-14.84680053-14.84680053-38.17748707 0-52.31729711l74.94099315-74.94099315c7.06990501-7.06990501 16.96777203-10.60485751 26.15864856-10.60485751 9.19087652 0 19.08874354 3.5349525 26.15864855 10.60485751l2.82796201 2.82796202c1.41398101 0.7069905 2.1209715 2.1209715 2.827962 2.827962l180.28257785 180.28257787c14.84680053 14.84680053 14.84680053 38.88447758 0.70699052 53.02428759z"  horiz-adv-x="1024" />

    
    <glyph glyph-name="wuquanjiaoyi" unicode="&#59036;" d="M947.717172 236.347475c-20.816162 31.159596-67.10303 73.309091-131.232324 77.963636 29.737374 48.872727 46.028283 106.666667 43.959596 168.468687-5.688889 164.977778-144.808081 296.727273-309.915151 293.753535C384.905051 773.559596 251.60404 638.448485 251.60404 472.048485c0-32.969697 5.430303-65.810101 15.903031-97.09899H79.385859c-2.327273 0-4.525253-0.905051-6.206061-2.585859-1.680808-1.680808-2.585859-3.878788-2.585859-6.20606v-366.286869c0-2.327273 0.905051-4.525253 2.585859-6.206061 1.680808-1.680808 3.878788-2.585859 6.206061-2.585858h489.115151L945.260606 197.818182c1.551515 0.905051 2.844444 2.19798 3.620202 3.878788 5.947475 14.092929 4.008081 28.056566-1.163636 34.650505zM560.226263 732.444444c136.145455-2.19798 248.888889-110.674747 255.741414-246.690909 3.490909-67.361616-18.876768-129.551515-57.79394-177.519192-11.507071-3.232323-22.755556-7.369697-33.616161-12.412121-37.107071-14.868687-74.343434-37.107071-111.450505-59.474747L322.585859 356.848485c-17.713131 35.814141-27.022222 75.248485-26.89293 115.329293 0 145.066667 118.820202 262.593939 264.533334 260.266666zM123.60404 35.167677c-2.327273 0-4.525253 0.905051-6.20606 2.585858-1.680808 1.680808-2.585859 3.878788-2.585859 6.206061V321.939394c0 4.913131 4.008081 8.791919 8.791919 8.791919h79.385859c2.327273 0 4.525253-0.905051 6.206061-2.585858 1.680808-1.680808 2.585859-3.878788 2.585858-6.206061v-277.979798c0-2.327273-0.905051-4.525253-2.585858-6.206061-1.680808-1.680808-3.878788-2.585859-6.206061-2.585858H123.60404z m430.157576 0.517171H256V330.860606h15.385859l295.951515-125.672727c-28.832323-15.515152-55.337374-24.436364-139.89495-13.446465 0 0-111.967677 22.238384-112.226262 22.109091-3.620202 0.775758-7.628283 0.775758-12.153536-1.680808-6.464646-3.490909-10.989899-10.084848-10.731313-17.325253 0.387879-8.791919 6.723232-16.032323 15.385859-17.713131l0.775757-0.387879 111.450505-22.238383c89.212121-22.367677 163.555556 14.868687 163.555556 14.868686s96.581818 51.975758 163.555555 89.212122c74.343434 44.606061 129.422222-13.187879 151.660607-35.555556L553.761616 35.684848z m0 0M541.478788 570.828283c-6.981818-1.939394-13.834343-4.266667-21.074748-6.464647v-69.559596h-21.333333v63.09495c-10.60202-3.10303-20.29899-6.206061-29.349495-8.533333l-5.688889 22.10909c9.826263 2.19798 21.721212 5.30101 34.909091 9.050506v37.365656h-13.058586c-2.19798-9.567677-4.525253-17.971717-7.240404-24.953535-3.490909 2.973737-12.153535 8.145455-16.420202 10.731313 6.076768 15.385859 9.438384 39.822222 11.119192 62.965656l19.39394-3.361616c-0.775758-7.757576-1.810101-15.385859-2.973738-23.272727h9.179798v37.494949h21.333333v-37.494949h16.161617v-22.109091h-16.161617v-31.418182l17.971718 5.042425 3.232323-20.686869z m105.115151 76.412121s-0.258586-7.757576-0.387878-10.60202c-3.749495-87.143434-7.240404-118.949495-14.610101-128.775758-4.525253-6.593939-8.791919-8.791919-15.256566-10.214141-5.430303-1.034343-13.705051-1.034343-22.109091-0.646465-0.646465 6.593939-2.973737 16.161616-6.464646 22.626263 7.240404-0.775758 13.705051-0.775758 17.325252-0.775758 2.973737 0 4.913131 0.775758 7.240404 3.749495 4.913131 6.206061 8.40404 32.840404 11.507071 102.917172h-1.034344c-9.567677-49.260606-29.737374-100.072727-61.155555-126.060606-4.525253 4.525253-12.541414 10.214141-19.006061 13.446465 31.288889 22.49697 50.812121 66.844444 60.509091 112.484848H594.230303c-8.533333-31.806061-24.953535-66.844444-44.735354-85.591919-4.266667 4.525253-11.765657 9.826263-17.842424 13.058586 19.393939 15.256566 34.521212 44.218182 43.183839 72.533333h-9.955556c-5.688889-13.446465-12.541414-25.6-20.169697-34.909091-3.749495 3.749495-12.929293 10.214141-17.583838 13.058586 15.385859 16.937374 26.117172 44.993939 32.064646 73.69697l21.074748-3.878788c-1.939394-9.050505-4.525253-17.842424-7.240404-26.375758h73.567676zM538.117172 360.59798c-4.266667 6.852525-11.894949 17.19596-19.39394 26.375757v-87.272727H495.967677v78.092929c-6.206061-18.359596-13.834343-35.167677-22.238384-46.545454-2.585859 6.593939-8.533333 17.842424-13.058586 24.048485 13.058586 15.385859 24.953535 42.79596 31.030303 66.844444h-24.824242v21.462626H495.967677v38.529293h22.884848v-38.529293H541.220202v-21.462626h-22.49697v-9.567677c7.628283-6.206061 28.185859-25.987879 32.452526-30.642424l-13.058586-21.333333z m104.339394 101.365656c-5.818182-46.286869-18.230303-82.230303-36.977778-109.381818 10.989899-13.317172 24.565657-24.177778 42.149495-34.133333-6.076768-4.525253-13.317172-12.929293-16.549495-19.781818-16.549495 10.731313-29.866667 22.109091-40.856566 34.909091-12.929293-14.092929-27.927273-24.953535-45.123232-33.616162-3.361616 6.076768-9.567677 14.99798-14.610101 19.393939 17.325253 7.369697 32.969697 18.747475 45.89899 33.616162-13.834343 23.272727-22.49697 51.717172-28.961616 89.082828l5.818181 1.163637h-9.955555v22.496969H623.967677l3.749495 1.034344 14.739394-4.783839z m-73.179798-18.747474c5.30101-28.573737 12.153535-51.2 22.109091-69.947475 12.153535 19.393939 20.686869 42.79596 25.987878 69.947475h-48.096969z"  horiz-adv-x="1024" />

    
    <glyph glyph-name="jiaoshiyuyue" unicode="&#59028;" d="M928.426667 428.373333l-375.466667 378.88c-20.48 20.48-34.133333 37.546667-58.026667 37.546667s-34.133333-13.653333-58.026666-37.546667l-341.333334-378.88c-6.826667-10.24-10.24-20.48-10.24-34.133333 0-10.24 3.413333-23.893333 10.24-34.133333 13.653333-20.48 37.546667-27.306667 61.44-27.306667v-375.466667c0-13.653333 23.893333-34.133333 34.133334-34.133333h648.533333c10.24 0 34.133333 20.48 34.133333 34.133333v375.466667c23.893333 0 47.786667 6.826667 58.026667 27.306667 6.826667 10.24 10.24 20.48 10.24 34.133333-3.413333 13.653333-6.826667 23.893333-13.653333 34.133333z m-126.293334-27.306666v-409.6h-580.266666v409.6h-68.266667l341.333333 375.466666 375.466667-375.466666h-68.266667z m-327.68-204.8h122.88v68.266666h-68.266666v68.266667h-68.266667v-122.88c0-6.826667 6.826667-13.653333 13.653333-13.653333zM290.133333 247.466667c0-58.026667 23.893333-116.053333 64.853334-157.013334 40.96-40.96 98.986667-64.853333 157.013333-64.853333 58.026667 0 116.053333 23.893333 157.013333 64.853333 40.96 40.96 64.853333 98.986667 64.853334 157.013334 0 58.026667-23.893333 116.053333-64.853334 157.013333-40.96 40.96-98.986667 64.853333-157.013333 64.853333-58.026667 0-116.053333-23.893333-157.013333-64.853333-40.96-40.96-64.853333-98.986667-64.853334-157.013333z m112.64 109.226666c27.306667 27.306667 68.266667 47.786667 109.226667 47.786667 40.96 0 81.92-20.48 109.226667-47.786667 27.306667-27.306667 44.373333-68.266667 44.373333-109.226666 0-40.96-17.066667-78.506667-44.373333-109.226667-27.306667-27.306667-68.266667-44.373333-109.226667-44.373333-40.96 0-78.506667 17.066667-109.226667 44.373333-30.72 27.306667-44.373333 68.266667-44.373333 109.226667 0 40.96 17.066667 78.506667 44.373333 109.226666z"  horiz-adv-x="1024" />

    
    <glyph glyph-name="fenzu" unicode="&#59024;" d="M963.73819165 245.89152710999997c-17.74423609 17.70928355-43.32366507 26.31343218-78.20629334 26.31343217h-61.51063324v119.76485547a30.37957689 30.37957689 0 0 1-30.36210062 30.33297351h-262.93625743V515.14254222h61.33587058c34.9175808 0 60.52613689 8.5983232 78.23542045 26.31343218 17.68598187 17.69763271 26.29013049 43.28871253 26.29013048 78.21794418V801.2872817800001c0 34.9175808-8.60414862 60.50866062-26.29013048 78.20629333-17.70928355 17.71510898-43.28871253 26.31343218-78.23542045 26.31343217h-181.57841067c-34.94670791 0-60.52031147-8.60414862-78.23542044-26.31343217-17.71510898-17.68598187-26.31343218-43.27706169-26.31343218-78.20629333v-181.6133632c0-34.94670791 8.5983232-60.53778773 26.31343218-78.21794418 17.71510898-17.71510898 43.28871253-26.31343218 78.23542044-26.31343218h59.50086258v-92.84557938H228.21455645a30.42618027 30.42618027 0 0 1-30.38540232-30.38540231v-119.70660125h-59.36105244c-34.9175808 0-60.49118435-8.60414862-78.20046791-26.31343217-17.71510898-17.74423609-26.31343218-43.32366507-26.31343218-78.20629333v-181.64831574c0-34.94088249 8.5983232-60.54943858 26.31343218-78.20046791 17.70928355-17.71510898 43.28871253-26.3192576 78.20046791-26.3192576h181.61918862c34.91175538 0 60.49118435 8.60414862 78.22959502 26.3192576 17.71510898 17.70928355 26.31343218 43.28871253 26.31343218 78.20046791v181.64831574c0 34.85932658-8.5983232 60.43875555-26.31343218 78.20629333-17.73841067 17.70928355-43.31783965 26.31343218-78.22959502 26.31343217H258.59995875v89.37362774h504.6796288v-89.37362774h-59.36105244c-34.91175538 0-60.49118435-8.60414862-78.26454756-26.33673386-17.65685475-17.73841067-26.25517795-43.31783965-26.25517795-78.17716622v-181.64831574c0-34.94088249 8.5983232-60.52031147 26.29013049-78.20046791 17.73841067-17.71510898 43.31783965-26.3192576 78.22959502-26.3192576h181.61918862c34.88262827 0 60.46205725 8.60414862 78.20629334 26.3192576 17.70928355 17.65102933 26.31343218 43.25958542 26.31343218 78.20046791v181.64831574c-0.00582542 34.87680285-8.60997405 60.45623182-26.3192576 78.20046791z"  horiz-adv-x="1024" />

    
    <glyph glyph-name="yuanxibaodao" unicode="&#59188;" d="M548.75022222 296.04977778c13.42577778 30.72 6.82666667 36.52266667-24.68977777 36.864-91.36355555 0.91022222-183.18222222 3.98222222-274.432-1.13777778-78.27911111-4.32355555-137.10222222-46.64888889-164.63644445-128.34133333-17.408-51.31377778-32.42666667-103.53777778-48.128-155.53422222-23.43822222-77.02755555-19.91111111-83.05777778 56.54755555-100.46577778l2.95822223-0.45511112c89.088-21.27644445 269.65333333-29.12711111 269.76711111-27.42044444h21.04888889c21.04888889 0 42.21155555-0.34133333 63.26044444 0.22755556 41.75644445 0.91022222 83.85422222 8.98844445 73.728 52.56533333-54.38577778 77.25511111-54.72711111 208.21333333-0.91022222 295.25333333 4.096 7.28177778 22.07288889 20.59377778 25.48622222 28.44444445zM995.55555555 114.68799999999999c-0.56888889 93.98044445-57.79911111 178.28977778-145.29422222 213.67466667-87.38133333 35.38488889-187.61955555 14.79111111-253.72444444-52.224-66.21866667-67.01511111-85.33333333-167.13955555-48.46933334-253.61066667 36.864-86.58488889 122.42488889-142.336 216.74666667-141.42577778 61.89511111-0.34133333 121.40088889 24.34844445 164.75022223 68.26666667 43.46311111 43.91822222 67.24266667 103.65155555 65.9911111 165.31911111z m-79.53066666 35.49866667c-0.11377778-0.11377778-0.22755555-0.11377778-0.34133334-0.22755556-6.94044445-6.25777778-14.10844445-12.06044445-21.16266666-18.09066666-14.44977778-12.288-28.78577778-24.68977778-43.23555556-36.97777778-16.61155555-14.22222222-33.33688889-28.44444445-49.94844444-42.66666667-13.76711111-11.71911111-27.53422222-23.552-41.18755556-35.27111111-5.80266667-4.89244445-11.37777778-9.78488889-17.18044444-14.67733334-5.46133333-4.66488889-11.15022222-7.39555555-18.432-7.6231111-6.48533333-0.34133333-13.88088889 3.072-18.432 7.6231111L608.71111111 99.66933332999997c-5.00622222 5.00622222-7.39555555 11.49155555-7.62311111 18.432-0.34133333 6.94044445 3.072 13.42577778 7.62311111 18.432 4.43733333 4.77866667 11.94666667 7.62311111 18.432 7.62311112 6.71288889 0 13.65333333-2.95822222 18.432-7.62311112l80.44088889-80.44088888c0.56888889 0.45511111 1.024 0.91022222 1.59288889 1.36533333 14.44977778 12.288 28.78577778 24.68977778 43.23555556 36.97777777 16.61155555 14.22222222 33.33688889 28.44444445 49.94844444 42.66666667 13.76711111 11.71911111 27.53422222 23.552 41.18755556 35.27111111 5.80266667 4.89244445 11.37777778 9.78488889 17.18044444 14.67733334 5.46133333 4.66488889 11.15022222 7.39555555 18.432 7.62311111 6.94044445 0.34133333 13.42577778-3.072 18.432-7.62311111 4.77866667-4.43733333 7.62311111-11.94666667 7.62311111-18.432 0.11377778-6.25777778-2.73066667-14.44977778-7.62311111-18.432z m0 0M463.75822222 637.26933333m-243.48444444 0a243.48444445 243.48444445 0 1 1 486.96888889 0 243.48444445 243.48444445 0 1 1-486.96888889 0Z"  horiz-adv-x="1024" />

    
    <glyph glyph-name="kebiao" unicode="&#59029;" d="M428.35456 683.60704h167.25504V633.856H428.35456v49.75104z m233.41568-133.38624c18.00192 0 33.87392 14.8224 33.87392 33.34656V733.88544c0 18.52416-15.87712 33.34144-33.87392 33.34144-18.52416 0-32.81408-14.81728-32.81408-33.34144v-150.31808c-0.53248-18.52416 14.28992-33.34656 32.81408-33.34656z m-300.63616 0c17.9968 0 33.87392 14.8224 33.87392 33.34656V733.88544c0 18.52416-15.88224 33.34144-33.87392 33.34144-18.52416 0-32.8192-14.81728-32.8192-33.34144v-150.31808c0.00512-18.52416 14.82752-33.34656 32.8192-33.34656zM791.44448 683.60704h-62.45376V633.856h64.57344c19.05664 0 34.92864-15.88224 34.92864-34.93376v-115.91168H194.93888V598.91712c0 19.05664 15.88224 34.93376 34.93376 34.93376h65.1008v49.75104H233.04704c-48.16384 0-87.33184-39.69536-87.33184-87.86432v-508.6464c0-48.16384 38.10816-87.86432 86.27712-87.86432h559.98976c48.15872 0 87.33184 39.70048 87.33184 87.86432V595.74272c-0.53248 48.69632-39.70048 87.86432-87.86944 87.86432zM326.72768 99.27168c-27.52 0-50.28352 22.7584-50.28352 50.2784 0 27.52512 22.23104 50.28352 50.28352 50.28352 27.52512 0 50.28352-22.7584 50.28352-50.28352 0.00512-27.52-22.23104-50.2784-50.28352-50.2784z m1.05984 184.18688c-27.52 0-50.28352 22.7584-50.28352 50.28352s22.23104 50.2784 50.28352 50.2784c27.52 0 50.28352-22.75328 50.28352-50.2784 0-28.05248-22.7584-50.28352-50.28352-50.28352z m183.66464-184.18688c-27.52 0-50.28352 22.7584-50.28352 50.2784 0 27.52512 22.23104 50.28352 50.28352 50.28352 27.52 0 50.28864-22.7584 50.28864-50.28352 0-27.52-22.76352-50.2784-50.28864-50.2784z m0 184.18688c-27.52 0-50.28352 22.7584-50.28352 50.28352s22.23104 50.2784 50.28352 50.2784c27.52 0 50.28864-22.75328 50.28864-50.2784 0-28.05248-22.76352-50.28352-50.28864-50.28352z m183.66464 0c-27.52 0-50.28352 22.7584-50.28352 50.28352s22.23616 50.2784 50.28352 50.2784c27.52512 0 50.2784-22.75328 50.2784-50.2784-0.52736-28.05248-22.75328-50.28352-50.2784-50.28352z"  horiz-adv-x="1024" />

    
    <glyph glyph-name="jiance" unicode="&#59030;" d="M709.492364 607.790545c80.802909-53.853091 134.656-143.592727 143.639272-251.345454 26.903273 0 53.853091-8.983273 80.802909-17.966546-8.983273 143.639273-80.802909 269.312-197.492363 341.178182-8.983273-17.966545-8.983273-44.916364-26.949818-71.866182zM655.639273 15.36c-44.869818-17.92-89.786182-35.886545-143.639273-35.886545-53.853091 0-98.769455 8.983273-143.639273 35.886545-17.966545-26.903273-35.886545-44.869818-53.853091-62.836364 62.836364-35.886545 125.672727-53.853091 197.492364-53.853091 71.819636 0 143.639273 17.966545 197.492364 53.853091-17.966545 17.966545-35.886545 35.933091-53.853091 62.836364zM170.821818 356.538182c8.983273 107.706182 62.836364 197.445818 143.639273 251.345454l-26.949818 80.756364c-116.689455-71.819636-188.509091-206.475636-197.492364-350.114909 26.949818 8.983273 53.899636 17.966545 80.802909 17.966545z m8.983273-44.916364a180.084364 180.084364 0 0 1-179.525818-179.572363 180.084364 180.084364 0 0 1 179.525818-179.525819 180.084364 180.084364 0 0 1 179.525818 179.525819 180.084364 180.084364 0 0 1-179.525818 179.572363zM512 895.069091a180.084364 180.084364 0 0 1-179.525818-179.525818A180.084364 180.084364 0 0 1 512 535.970909a180.084364 180.084364 0 0 1 179.525818 179.572364A180.084364 180.084364 0 0 1 512 895.069091z m332.148364-583.493818a180.084364 180.084364 0 0 1-179.525819-179.572364 180.084364 180.084364 0 0 1 179.525819-179.525818 180.084364 180.084364 0 0 1 179.525818 179.525818 180.084364 180.084364 0 0 1-179.525818 179.572364z m-664.296728 0a180.084364 180.084364 0 0 1-179.525818-179.572364 180.084364 180.084364 0 0 1 179.525818-179.525818 180.084364 180.084364 0 0 1 179.525819 179.525818 180.084364 180.084364 0 0 1-179.525819 179.572364z"  horiz-adv-x="1024" />

    
    <glyph glyph-name="shenhe2" unicode="&#58892;" d="M987.184505 290.654316l-1.994105 2.155789a32.175158 32.175158 0 0 1-47.265684 0l-212.021895-223.824842-100.998737 106.60379a32.175158 32.175158 0 0 1-47.265684 0l-1.994105-2.15579a36.648421 36.648421 0 0 1 0-49.906526l123.957894-130.856421a34.492632 34.492632 0 0 1 4.042106-3.664842 32.175158 32.175158 0 0 1 46.133894 1.077894l237.406316 250.718316a36.648421 36.648421 0 0 1 0 49.852632zM498.7904-59.445895h-341.153684c-35.408842 0-64.296421 29.749895-64.296421 66.290527 0 216.656842 166.696421 367.993263 405.450105 367.993263 85.692632 0 159.366737-50.499368 160.175158-51.038316 15.090526-10.509474 35.786105-6.413474 46.026105 9.216a34.923789 34.923789 0 0 1-8.784842 47.535158c-2.317474 1.562947-38.211368 26.408421-91.297684 44.409263A254.005895 254.005895 0 0 1 727.519663 643.664842C727.519663 782.821053 617.789979 896 482.945347 896c-134.952421 0-244.682105-113.178947-244.682105-252.335158 0-92.16 48.128-172.894316 119.754105-216.926316C157.582821 376.562526 26.888084 217.842526 26.888084 6.898526 26.888084-67.530105 85.579453-128 157.636716-128h341.153684c18.324211 0 33.253053 15.36 33.253053 34.277053a33.792 33.792 0 0 1-33.253053 34.277052zM304.715453 643.664842c0 101.322105 79.925895 183.781053 178.229894 183.781053 98.196211 0 178.122105-82.405053 178.122106-183.781053 0-101.429895-79.872-183.888842-178.122106-183.888842-98.304 0-178.229895 82.566737-178.229894 183.888842z"  horiz-adv-x="1024" />

    
    <glyph glyph-name="O" unicode="&#58891;" d="M44.0878472 380.02317843000003c0 641.62106533 951.86881296 641.62106533 951.86881295 0-0.0271853-642.97515235-951.86881296-642.97515235-951.86881295 0z m709.25551185 0c0 334.08019722-465.34378889 334.08019722-465.34378888 0 0.0271853-336.73141159 465.34378889-336.73141159 465.34378888 0z"  horiz-adv-x="1024" />

    
    </font>
</defs>
</svg>
